<svg width="66" height="55" viewBox="0 0 66 55" fill="none" xmlns="http://www.w3.org/2000/svg">
<g clip-path="url(#clip0)">
<path d="M33.39 54.9572C48.5171 54.9572 60.78 42.6942 60.78 27.5671C60.78 12.44 48.5171 0.177021 33.39 0.177021C18.2629 0.177021 6 12.44 6 27.5671C6 42.6942 18.2629 54.9572 33.39 54.9572Z" fill="#1A171B"/>
<path d="M45.3104 10.2979C42.5316 10.3948 40.1063 11.9263 38.3009 14.0447C36.3018 16.3675 34.9719 19.1226 34.0137 21.9347C32.2997 20.5299 30.9773 18.7113 28.2273 17.9183C26.1018 17.308 23.8693 17.5601 21.8163 19.0896C20.8438 19.8161 20.1738 20.9143 19.8552 21.9465C19.0303 24.6292 20.7224 27.0167 21.4911 27.8739L23.1715 29.6748C23.518 30.0278 24.3523 30.949 23.9444 32.2698C23.5036 33.7056 21.7725 34.6353 19.9968 34.0875C19.2038 33.8457 18.0645 33.2549 18.3196 32.423C18.4251 32.0827 18.6686 31.8281 18.7992 31.5339C18.919 31.2811 18.9761 31.0916 19.0125 30.9803C19.3369 29.9211 18.8937 28.543 17.7592 28.1931C16.7008 27.8687 15.6178 28.1257 15.198 29.4886C14.7219 31.0368 15.4627 33.8466 19.4313 35.0702C24.0809 36.4987 28.0142 33.9671 28.5721 30.6651C28.9234 28.5969 27.9896 27.0605 26.2788 25.0844L24.8849 23.5428C24.0405 22.6993 23.7506 21.2616 24.6245 20.1565C25.3619 19.2244 26.4121 18.8266 28.1321 19.2944C30.6428 19.9762 31.7619 21.7182 33.6294 23.1232C32.8584 25.6523 32.3545 28.1908 31.8982 30.4672L31.6203 32.1643C30.2854 39.166 29.2664 43.0107 26.6184 45.2179C26.0849 45.5973 25.3223 46.1652 24.1727 46.2048C23.5702 46.2234 23.3754 45.809 23.3671 45.6284C23.3528 45.2053 23.7093 45.0114 23.9461 44.821C24.3001 44.628 24.8352 44.3079 24.7989 43.2822C24.7603 42.0702 23.7563 41.0194 22.3051 41.0675C21.218 41.1045 19.5612 42.1276 19.6234 44.0002C19.6883 45.9344 21.4911 47.3839 24.2091 47.2921C25.6621 47.2422 28.9065 46.6508 32.1041 42.8498C35.8257 38.4926 36.8666 33.4976 37.6495 29.8417L38.5234 25.015C39.009 25.0733 39.5281 25.112 40.0928 25.1255C44.7279 25.2233 47.0465 22.8224 47.0809 21.076C47.1038 20.0192 46.3874 18.9792 45.3844 19.0027C44.6665 19.0231 43.7646 19.5009 43.548 20.4938C43.3366 21.4678 45.023 22.3469 43.7049 23.2007C42.7685 23.8067 41.0898 24.2338 38.7257 23.8867L39.1556 21.5108C40.0329 17.0054 41.115 11.4634 45.2201 11.3286C45.5193 11.3134 46.614 11.3421 46.6395 12.066C46.647 12.3078 46.587 12.3694 46.3039 12.923C46.0157 13.3546 45.907 13.722 45.9205 14.1442C45.9601 15.2946 46.8348 16.0506 48.0999 16.005C49.7938 15.9503 50.2811 14.3011 50.2532 13.4541C50.1848 11.4641 48.0873 10.2069 45.3102 10.2979H45.3104Z" fill="white"/>
</g>
<defs>
<clipPath id="clip0">
<rect width="54.78" height="55" fill="white" transform="translate(6)"/>
</clipPath>
</defs>
</svg>
