<svg width="55" height="55" viewBox="0 0 55 55" fill="none" xmlns="http://www.w3.org/2000/svg">
<path fill-rule="evenodd" clip-rule="evenodd" d="M15.4563 47.8371C27.2581 49.4484 38.8502 51.031 50.6727 52.6445C46.6448 45.9387 42.7204 39.4045 38.7647 32.817L15.4563 47.8371V47.8371ZM54.0036 10.7194C52.9633 12.2818 51.9209 13.8428 50.8819 15.406C47.3138 20.7741 43.7461 26.1422 40.1814 31.5129C39.9829 31.8119 39.7255 32.0491 40.0052 32.5102C43.4496 38.1979 46.8669 43.9025 50.2928 49.6018C50.8334 50.502 51.3799 51.3988 52.079 52.2625C52.7717 38.4295 53.4639 24.5962 54.1561 10.7632L54.0036 10.7194V10.7194ZM6.98331 28.4539C7.14444 28.6064 7.54663 28.6954 7.73398 28.603C11.0378 26.9792 14.3628 25.3915 17.5944 23.6341C18.6485 23.0613 19.4589 22.0344 20.3668 21.2016C23.3733 18.4443 26.3751 15.6814 29.3756 12.9181C29.5591 12.7484 29.7765 12.5843 29.8861 12.3703C30.9637 10.2639 32.0229 8.14688 33.1195 5.96879C31.8119 5.47723 30.5723 4.99641 29.3172 4.55898C29.147 4.49969 28.8789 4.61742 28.6946 4.72012C25.7894 6.34305 22.8298 7.87961 20.017 9.64949C18.6098 10.5351 17.4634 11.84 16.2173 12.9766C14.2089 14.8096 12.2032 16.647 10.224 18.5118C9.69894 19.0068 9.22026 19.5723 8.8112 20.1678C7.45769 22.1388 6.14456 24.1381 4.77128 26.1942C5.5387 26.9878 6.23651 27.7466 6.98331 28.4539V28.4539ZM19.0584 25.7593C17.4148 32.7027 15.7812 39.6069 14.0929 46.738C22.0091 41.6372 29.7426 36.6541 37.425 31.7045C31.3114 29.7258 25.2175 27.7531 19.0584 25.7593ZM51.9858 10.7864C45.2973 11.9041 38.7686 12.9946 32.1557 14.0993C34.4081 19.5783 36.6154 24.9472 38.8855 30.4687C43.2773 23.8691 47.5823 17.4019 51.9858 10.7864V10.7864ZM19.3342 24.3392C25.3572 26.2943 31.2602 28.2107 37.3347 30.183C35.0789 24.6873 32.9003 19.3836 30.6767 13.9679C26.889 17.4307 23.158 20.8424 19.3342 24.3392ZM7.2321 32.5029C5.09612 37.6088 3.03276 42.5412 0.932021 47.5625C4.96937 47.4431 8.88296 47.3275 12.931 47.208C11.0305 42.3045 9.16741 37.4971 7.2321 32.5029V32.5029ZM13.0728 43.716L13.2215 43.6833C14.6623 37.693 16.1236 31.744 17.5944 25.5196C14.3133 27.225 11.1835 28.8514 7.96816 30.5229C9.60913 34.7879 11.3588 39.2872 13.0728 43.716V43.716ZM49.5649 9.81492C47.6489 9.30746 45.733 8.79828 43.8161 8.29426C41.061 7.5698 38.3037 6.85438 35.5502 6.12348C35.206 6.03195 34.9573 5.97223 34.7549 6.38688C33.7816 8.38063 32.7783 10.3593 31.7896 12.3458C31.7591 12.4072 31.7655 12.4867 31.7419 12.641C37.7085 11.7369 43.6352 10.8384 49.5611 9.94039L49.5649 9.81492ZM38.4493 5.28L54.0655 9.60008C53.17 7.04816 52.3394 4.68188 51.4852 2.24813L38.4721 5.13348L38.4493 5.28V5.28ZM14.3967 48.9874C12.4627 48.7644 10.4771 48.9693 8.51558 49.0033C6.90425 49.0304 5.29292 49.0918 3.68159 49.1421C3.51573 49.1472 3.3503 49.1807 3.18487 49.3595C16.5065 50.591 29.8276 51.8225 43.1488 53.0548L43.1759 52.8769C38.9057 52.2938 34.635 51.7107 30.3648 51.1281C25.0435 50.4015 19.7313 49.6023 14.3967 48.9874V48.9874ZM1.19542 42.9662C2.91202 38.983 4.62132 34.9972 6.3448 31.017C6.5171 30.6178 6.50378 30.3467 6.16647 30.0253C5.44546 29.3391 4.77558 28.5996 3.98753 27.7797C2.92233 33.0391 1.88335 38.1683 0.843506 43.297L0.959951 43.3516C1.03944 43.224 1.13655 43.1032 1.19542 42.9662V42.9662ZM35.029 4.22855C37.9238 3.48176 40.8607 2.89781 43.7805 2.24641C43.9695 2.20387 44.1543 2.14156 44.3403 2.08828L44.3116 1.94563C40.199 2.49863 36.0869 3.05207 31.7673 3.63344C32.945 4.14777 33.8525 4.53191 35.029 4.22855Z" fill="#D91404"/>
</svg>
