<svg width="66" height="52" viewBox="0 0 66 52" fill="none" xmlns="http://www.w3.org/2000/svg">
<path d="M54.1594 11.5126L35.2115 0.510469C34.0165 -0.170156 32.4606 -0.170156 31.2562 0.510469L12.1059 11.5126C10.8727 12.222 10 13.5554 10 14.9815V36.9566C10 38.3827 10.8955 39.7164 12.1287 40.4297L17.1882 43.3035C19.6065 44.4946 20.4612 44.4946 21.5616 44.4946C25.1422 44.4946 27.1875 42.3294 27.1875 38.5529V16.8579C27.1875 16.5516 27.0281 16.0957 26.7273 16.0957H24.3112C24.0052 16.0957 23.3203 16.5516 23.3203 16.8575V38.5524C23.3203 40.2265 21.8061 41.8924 18.9762 40.4774L13.7482 37.464C13.566 37.3652 13.4375 37.1663 13.4375 36.9566V14.9815C13.4375 14.7744 13.676 14.5664 13.8595 14.4603L32.9479 3.47703C33.1262 3.37605 33.3883 3.37605 33.5662 3.47703L52.4218 14.4577C52.6022 14.5664 52.5386 14.7679 52.5386 14.9815V36.9566C52.5386 37.1663 52.6173 37.3704 52.4389 37.4713L33.4957 48.461C33.3333 48.5586 33.1318 48.5586 32.9539 48.461L28.0954 45.5611C27.9489 45.476 27.7749 45.4455 27.6344 45.5241C26.2826 46.2902 26.0334 46.3921 24.7654 46.8316C24.4534 46.9404 23.9932 47.129 24.9415 47.6605L31.3 51.422C31.9089 51.7743 32.6007 51.9574 33.2968 51.9574C34.0023 51.9574 34.6933 51.7743 35.3021 51.422L54.159 40.4297C55.3922 39.7113 55.9766 38.3827 55.9766 36.9566V14.9815C55.9766 13.5554 55.3922 12.2255 54.1594 11.5126V11.5126ZM39.1801 33.4744C34.1416 33.4744 33.0317 32.0843 32.6617 29.5788C32.6188 29.309 32.3897 28.9863 32.1152 28.9863H29.6526C29.348 28.9863 29.103 29.3558 29.103 29.6592C29.103 32.8672 30.8472 36.7542 39.1805 36.7542C45.2129 36.7542 48.6714 34.4102 48.6714 30.262C48.6714 26.1491 45.8927 25.0697 40.0425 24.2954C34.1291 23.5138 33.5284 23.1189 33.5284 21.7336C33.5284 20.5915 34.0371 19.0682 38.4157 19.0682C42.328 19.0682 43.77 19.9079 44.3634 22.5448C44.4141 22.7928 44.6405 22.9707 44.8962 22.9707H47.3686C47.5207 22.9707 47.666 22.9092 47.7725 22.8005C47.8757 22.6836 47.9302 22.5371 47.9165 22.3798C47.5336 17.8389 44.5168 15.7227 38.4152 15.7227C32.9879 15.7227 29.7502 18.0146 29.7502 21.8565C29.7502 26.0236 32.9715 27.1752 38.1815 27.6904C44.4141 28.3014 44.8988 29.2123 44.8988 30.4382C44.8988 32.5673 43.1895 33.4744 39.1801 33.4744Z" fill="#83CD29"/>
</svg>
