<svg width="66" height="55" viewBox="0 0 66 55" fill="none" xmlns="http://www.w3.org/2000/svg">
<path d="M29.2946 6.875H36.1094V38.103C33.2004 38.7 30.2395 39.008 27.2699 39.0225C18.9477 39.0139 14.6165 35.2962 14.6165 28.1566C14.6165 21.2816 19.2107 16.8128 26.3315 16.8128C27.3301 16.7933 28.3269 16.909 29.2946 17.1566V6.875V6.875ZM29.2946 22.5878C28.5537 22.3434 27.7766 22.2272 26.9966 22.2441C23.5591 22.2441 21.5602 24.3461 21.5602 28.0294C21.5602 31.6164 23.4629 33.5964 26.9536 33.5964C27.7371 33.5962 28.5195 33.5388 29.2946 33.4245V22.5964V22.5878Z" fill="#44B78B"/>
<path d="M46.9374 17.2889V32.9295C46.9374 38.3144 46.5335 40.9028 45.351 43.1355C44.1442 45.4056 42.1708 47.1737 39.7823 48.125L33.4607 45.1464C35.7573 44.36 37.6808 42.75 38.8593 40.6278C39.8321 38.7011 40.1398 36.4684 40.1398 30.5955V17.2889H46.9374Z" fill="#44B78B"/>
<path d="M46.9462 6.90938H40.1331V13.8325H46.9462V6.90938Z" fill="#44B78B"/>
</svg>
