<svg width="55" height="55" viewBox="0 0 55 55" fill="none" xmlns="http://www.w3.org/2000/svg">
<path d="M0 47.9082C0 51.8253 3.17518 55 7.09178 55H47.908C51.8253 55 55 51.8248 55 47.9082V7.09199C55 3.17475 51.8248 0 47.9082 0H7.09199C3.17475 0 0 3.17518 0 7.09178V47.908V47.9082Z" fill="#563D7C"/>
<path d="M22.8074 24.3285V16.5397H29.6634C30.3165 16.5397 30.946 16.5941 31.5523 16.703C32.1586 16.8117 32.695 17.006 33.1615 17.2859C33.6277 17.5658 34.0009 17.9545 34.2808 18.4519C34.5606 18.9494 34.7006 19.5869 34.7006 20.364C34.7006 21.7632 34.2808 22.7739 33.4412 23.3956C32.6018 24.0176 31.5291 24.3285 30.223 24.3285H22.8074V24.3285ZM15.4849 10.8496V44.1504H31.6223C33.1149 44.1504 34.5685 43.9639 35.9833 43.5907C37.398 43.2175 38.6572 42.6424 39.7611 41.8651C40.8648 41.0878 41.7433 40.0849 42.3962 38.8569C43.0493 37.6286 43.3757 36.175 43.3757 34.496C43.3757 32.4126 42.8703 30.6326 41.8599 29.1558C40.8493 27.6788 39.3179 26.6449 37.2657 26.0541C38.7582 25.3391 39.8855 24.4217 40.6473 23.3024C41.409 22.183 41.7899 20.784 41.7899 19.1048C41.7899 17.5502 41.5334 16.2443 41.0203 15.1871C40.5073 14.1301 39.7843 13.2827 38.8514 12.6453C37.9188 12.0078 36.7995 11.5491 35.4934 11.2694C34.1876 10.9895 32.7417 10.8496 31.1559 10.8496H15.4849V10.8496ZM22.8074 38.4603V29.3189H30.7827C32.3685 29.3189 33.6434 29.6841 34.6074 30.415C35.5712 31.1457 36.0533 32.366 36.0533 34.0762C36.0533 34.9469 35.9055 35.6619 35.6101 36.2216C35.3147 36.7813 34.9183 37.2245 34.4207 37.5508C33.9233 37.8774 33.348 38.1105 32.695 38.2506C32.0419 38.3902 31.3581 38.4603 30.6428 38.4603H22.8074V38.4603Z" fill="white"/>
</svg>
