<svg width="66" height="55" viewBox="0 0 66 55" fill="none" xmlns="http://www.w3.org/2000/svg">
<g clip-path="url(#clip0)">
<path d="M50.1517 10.8004C50.1139 10.5254 49.8729 10.3732 49.6738 10.3564C49.4751 10.3398 45.2695 10.0281 45.2695 10.0281C45.2695 10.0281 42.3487 7.12836 42.0281 6.8074C41.7073 6.48663 41.0808 6.5842 40.8377 6.65577C40.8019 6.66632 40.1995 6.85223 39.2031 7.16057C38.2274 4.35292 36.5055 1.77281 33.4761 1.77281C33.3925 1.77281 33.3064 1.7762 33.2203 1.7811C32.3588 0.64173 31.2915 0.146729 30.3697 0.146729C23.3129 0.146729 19.9415 8.96841 18.8845 13.4513C16.1424 14.301 14.1944 14.905 13.9456 14.9832C12.415 15.4633 12.3666 15.5116 12.1656 16.9538C12.0144 18.0457 8.00952 49.017 8.00952 49.017L39.2161 54.864L56.1249 51.2061C56.1249 51.2061 50.1892 11.0754 50.1519 10.8004H50.1517ZM37.4783 7.69399L34.8377 8.51127C34.8387 8.32518 34.8396 8.14209 34.8396 7.94187C34.8396 6.19693 34.5974 4.79198 34.2088 3.67823C35.7697 3.87412 36.8093 5.65013 37.4783 7.69399ZM32.2725 4.02424C32.7065 5.11162 32.9886 6.67216 32.9886 8.77799C32.9886 8.88573 32.9877 8.98424 32.9868 9.08388C31.2695 9.6158 29.4035 10.1933 27.5333 10.7727C28.5834 6.72 30.5517 4.7626 32.2725 4.02424V4.02424ZM30.1759 2.03952C30.4805 2.03952 30.7873 2.14293 31.081 2.34504C28.8194 3.40925 26.3952 6.08957 25.3715 11.4421L21.0608 12.7772C22.2598 8.69454 25.107 2.03952 30.1757 2.03952H30.1759Z" fill="#95BF46"/>
<path d="M49.6737 10.3564C49.475 10.3398 45.2694 10.0281 45.2694 10.0281C45.2694 10.0281 42.3486 7.12834 42.028 6.80738C41.908 6.68796 41.7462 6.62675 41.5771 6.60038L39.2175 54.8635L56.1247 51.206C56.1247 51.206 50.1889 11.0753 50.1516 10.8003C50.1137 10.5253 49.8728 10.3732 49.6737 10.3564" fill="#5E8E3E"/>
<path d="M33.476 19.6992L31.3911 25.901C31.3911 25.901 29.5644 24.9261 27.3252 24.9261C24.0426 24.9261 23.8774 26.9861 23.8774 27.5053C23.8774 30.3377 31.2609 31.423 31.2609 38.0577C31.2609 43.2776 27.9502 46.6388 23.4862 46.6388C18.1293 46.6388 15.3899 43.3049 15.3899 43.3049L16.8242 38.5659C16.8242 38.5659 19.6401 40.9834 22.0162 40.9834C23.5688 40.9834 24.2004 39.761 24.2004 38.8678C24.2004 35.173 18.1429 35.0082 18.1429 28.9369C18.1429 23.827 21.8105 18.8821 29.214 18.8821C32.0667 18.8821 33.476 19.6992 33.476 19.6992" fill="white"/>
</g>
<defs>
<clipPath id="clip0">
<rect width="48.224" height="55" fill="white" transform="translate(8)"/>
</clipPath>
</defs>
</svg>
