<svg width="66" height="55" viewBox="0 0 66 55" fill="none" xmlns="http://www.w3.org/2000/svg">
<path d="M63.3953 27.5063C63.3953 23.415 58.302 19.5377 50.4931 17.1332C52.2951 9.1268 51.4942 2.75692 47.9652 0.717555C47.1517 0.239185 46.2006 0.0125885 45.162 0.0125885V2.81987C45.7376 2.81987 46.2006 2.93317 46.5886 3.14717C48.2905 4.12909 49.0289 7.86793 48.4532 12.6768C48.3156 13.8601 48.0903 15.1064 47.815 16.3779C45.3622 15.7736 42.6841 15.3078 39.8684 15.0057C38.179 12.6768 36.4269 10.5619 34.6624 8.71137C38.7421 4.897 42.5715 2.80728 45.1745 2.80728V0C41.733 0 37.2279 2.46738 32.6726 6.74754C28.1174 2.49256 23.6123 0.050355 20.1708 0.050355V2.85763C22.7613 2.85763 26.6032 4.93477 30.6829 8.72396C28.9309 10.5745 27.1789 12.6768 25.5144 15.0057C22.6862 15.3078 20.0081 15.7736 17.5553 16.3905C17.2675 15.1316 17.0547 13.9105 16.9046 12.7398C16.3164 7.93088 17.0422 4.19203 18.7317 3.19753C19.1071 2.97093 19.5952 2.87022 20.1708 2.87022V0.0629435C19.1196 0.0629435 18.1685 0.28954 17.3426 0.76791C13.826 2.80728 13.0376 9.16457 14.8522 17.1458C7.06831 19.5628 2 23.4276 2 27.5063C2 31.5976 7.09333 35.4749 14.9023 37.8794C13.1002 45.8858 13.9011 52.2557 17.4302 54.295C18.2436 54.7734 19.1947 55 20.2459 55C23.6874 55 28.1925 52.5326 32.7477 48.2525C37.303 52.5074 41.8081 54.9496 45.2496 54.9496C46.3008 54.9496 47.2519 54.723 48.0778 54.2447C51.5943 52.2053 52.3827 45.848 50.5681 37.8668C58.327 35.4623 63.3953 31.585 63.3953 27.5063ZM47.1017 19.1096C46.6386 20.7336 46.063 22.4079 45.4122 24.0822C44.8992 23.0751 44.361 22.068 43.7729 21.0609C43.1972 20.0538 42.584 19.0719 41.9708 18.1151C43.7478 18.3795 45.4623 18.7068 47.1017 19.1096ZM41.3701 32.5166C40.394 34.2161 39.3928 35.8274 38.3542 37.3255C36.4895 37.4891 34.5999 37.5772 32.6977 37.5772C30.808 37.5772 28.9183 37.4891 27.0662 37.3381C26.0275 35.84 25.0139 34.2412 24.0378 32.5544C23.0867 30.9052 22.2232 29.2309 21.4348 27.5441C22.2107 25.8572 23.0867 24.1703 24.0252 22.5212C25.0014 20.8217 26.0025 19.2103 27.0412 17.7123C28.9058 17.5486 30.7955 17.4605 32.6977 17.4605C34.5873 17.4605 36.477 17.5486 38.3291 17.6997C39.3678 19.1978 40.3815 20.7965 41.3576 22.4834C42.3087 24.1325 43.1722 25.8068 43.9606 27.4937C43.1722 29.1806 42.3087 30.8675 41.3701 32.5166ZM45.4122 30.8801C46.088 32.5669 46.6637 34.2538 47.1392 35.8904C45.4998 36.2932 43.7729 36.6331 41.9833 36.8975C42.5965 35.9281 43.2097 34.9336 43.7854 33.9139C44.361 32.9068 44.8992 31.8872 45.4122 30.8801ZM32.7227 44.3122C31.5589 43.1037 30.395 41.7567 29.2437 40.2838C30.37 40.3342 31.5213 40.3719 32.6852 40.3719C33.8615 40.3719 35.0253 40.3468 36.1641 40.2838C35.0379 41.7567 33.874 43.1037 32.7227 44.3122ZM23.412 36.8975C21.635 36.6331 19.9205 36.3058 18.2812 35.903C18.7442 34.279 19.3198 32.6047 19.9706 30.9304C20.4837 31.9375 21.0218 32.9446 21.61 33.9517C22.1981 34.9588 22.7988 35.9407 23.412 36.8975ZM32.6601 10.7004C33.824 11.9089 34.9878 13.2559 36.1391 14.7288C35.0128 14.6784 33.8615 14.6406 32.6977 14.6406C31.5213 14.6406 30.3575 14.6658 29.2187 14.7288C30.345 13.2559 31.5088 11.9089 32.6601 10.7004ZM23.3995 18.1151C22.7863 19.0845 22.1731 20.079 21.5975 21.0986C21.0218 22.1057 20.4837 23.1128 19.9706 24.1199C19.2948 22.433 18.7192 20.7462 18.2436 19.1096C19.883 18.7194 21.61 18.3795 23.3995 18.1151ZM12.074 33.8762C7.64397 31.9753 4.77818 29.4827 4.77818 27.5063C4.77818 25.5299 7.64397 23.0247 12.074 21.1364C13.1503 20.6706 14.3266 20.2552 15.5405 19.865C16.2538 22.3323 17.1924 24.9004 18.3562 27.5315C17.2049 30.1499 16.2789 32.7054 15.5781 35.1602C14.3391 34.77 13.1628 34.342 12.074 33.8762ZM18.8068 51.8654C17.1048 50.8835 16.3665 47.1446 16.9421 42.3358C17.0798 41.1524 17.305 39.9062 17.5804 38.6347C20.0332 39.239 22.7112 39.7047 25.527 40.0069C27.2164 42.3358 28.9684 44.4507 30.7329 46.3012C26.6532 50.1156 22.8239 52.2053 20.2209 52.2053C19.6577 52.1927 19.1822 52.0794 18.8068 51.8654ZM48.4908 42.2728C49.0789 47.0817 48.3531 50.8205 46.6637 51.8151C46.2882 52.0417 45.8002 52.1424 45.2245 52.1424C42.6341 52.1424 38.7922 50.0652 34.7125 46.276C36.4645 44.4255 38.2165 42.3232 39.8809 39.9943C42.7091 39.6921 45.3872 39.2264 47.84 38.6095C48.1279 39.881 48.3531 41.1021 48.4908 42.2728ZM53.3088 33.8762C52.2326 34.342 51.0562 34.7574 49.8423 35.1476C49.129 32.6802 48.1904 30.1121 47.0266 27.4811C48.1779 24.8627 49.104 22.3072 49.8048 19.8524C51.0437 20.2426 52.22 20.6706 53.3213 21.1364C57.7514 23.0373 60.6172 25.5299 60.6172 27.5063C60.6046 29.4827 57.7389 31.9879 53.3088 33.8762Z" fill="#61DAFB"/>
<path d="M32.6851 33.2593C35.8437 33.2593 38.4042 30.6836 38.4042 27.5063C38.4042 24.329 35.8437 21.7532 32.6851 21.7532C29.5266 21.7532 26.9661 24.329 26.9661 27.5063C26.9661 30.6836 29.5266 33.2593 32.6851 33.2593Z" fill="#61DAFB"/>
</svg>
