<svg width="74" height="55" viewBox="0 0 74 55" fill="none" xmlns="http://www.w3.org/2000/svg">
<g clip-path="url(#clip0)">
<path d="M63.1067 31.5963C60.5429 31.6108 58.3228 32.2265 56.4608 33.1433C55.7733 31.7826 55.0858 30.5937 54.9714 29.7058C54.8425 28.6746 54.6849 28.0442 54.8425 26.8126C54.9999 25.5807 55.716 23.8333 55.716 23.69C55.7016 23.5611 55.5583 22.9309 54.0832 22.9166C52.6081 22.9023 51.3332 23.2031 51.19 23.5898C51.0468 23.9765 50.7603 24.8645 50.5741 25.7812C50.3163 27.1275 47.6236 31.8971 46.0911 34.4036C45.5898 33.4296 45.1601 32.5702 45.074 31.8826C44.9452 30.8515 44.7875 30.2211 44.9452 28.9895C45.1028 27.7576 45.8189 26.0104 45.8189 25.8671C45.8046 25.7382 45.6614 25.108 44.1863 25.0937C42.7109 25.0794 41.4363 25.3801 41.293 25.7669C41.1498 26.1536 40.9922 27.0703 40.6771 27.9583C40.3762 28.8463 36.7955 36.8098 35.8645 38.8866C35.3918 39.9465 34.9766 40.7916 34.6757 41.3645C34.3749 41.9374 34.6614 41.4075 34.6327 41.4648C34.3749 41.9517 34.2317 42.2239 34.2317 42.2239V42.2383C34.0312 42.5964 33.8163 42.94 33.7159 42.94C33.6443 42.94 33.5011 41.9804 33.7446 40.6628C34.2745 37.8984 35.5636 33.5873 35.5494 33.4298C35.5494 33.3581 35.7927 32.5989 34.7185 32.2123C33.673 31.8256 33.3007 32.4701 33.2146 32.4701C33.1287 32.4701 33.0571 32.6993 33.0571 32.6993C33.0571 32.6993 34.2172 27.844 30.837 27.844C28.7172 27.844 25.7954 30.15 24.3487 32.2554C23.4321 32.7567 21.4842 33.8165 19.4217 34.9481C18.6339 35.3778 17.8175 35.8362 17.0441 36.2515L16.8867 36.0794C12.7903 31.7109 5.2135 28.6171 5.5286 22.7447C5.64319 20.6106 6.38798 14.9817 20.0808 8.16403C31.2956 2.5781 40.2761 4.11065 41.8372 7.5195C44.0572 12.3893 37.039 21.4414 25.3803 22.7447C20.9402 23.246 18.6054 21.5273 18.0183 20.8828C17.4024 20.2096 17.3165 20.1809 17.0873 20.3098C16.7149 20.5104 16.9441 21.1119 17.0873 21.47C17.4311 22.3723 18.8634 23.9765 21.2983 24.7786C23.4322 25.4804 28.6459 25.8671 34.948 23.4322C42.0092 20.6966 47.5235 13.1054 45.905 6.76038C44.2579 0.300758 33.5443 -1.81903 23.418 1.77602C17.388 3.92445 10.8567 7.27601 6.15881 11.6731C0.572881 16.8867 -0.315139 21.4414 0.0572566 23.332C1.36078 30.0781 10.6562 34.4752 14.3802 37.7265C14.194 37.8266 14.0221 37.9269 13.8645 38.0129C12.0026 38.9295 4.91272 42.6392 3.13668 46.5636C1.13147 51.0037 3.45178 54.1978 4.99866 54.6275C9.78251 55.9595 14.6809 53.5676 17.3307 49.6288C19.9659 45.69 19.651 40.5767 18.4335 38.2421L18.3904 38.1562L19.8514 37.2968C20.7968 36.7382 21.7278 36.2226 22.5441 35.7784C22.0859 37.0245 21.7563 38.4998 21.5846 40.6482C21.3841 43.1692 22.4153 46.4347 23.776 47.7237C24.3775 48.2822 25.0937 48.2966 25.5377 48.2966C27.1132 48.2966 27.8294 46.9931 28.6171 45.4321C29.5911 43.5271 30.4504 41.3214 30.4504 41.3214C30.4504 41.3214 29.3762 47.294 32.3124 47.294C33.3866 47.294 34.4609 45.9047 34.9478 45.1886V45.2029C34.9478 45.2029 34.9765 45.1599 35.0338 45.0597C35.0939 44.9708 35.1512 44.8801 35.2057 44.7877V44.759C35.6353 44.0142 36.595 42.3098 38.0273 39.4882C39.8748 35.8502 41.651 31.2955 41.651 31.2955C41.651 31.2955 41.8228 32.4127 42.3528 34.246C42.6677 35.3347 43.3552 36.5234 43.8852 37.6835C43.4555 38.2851 43.1977 38.629 43.1977 38.629L43.212 38.6433C42.8684 39.1016 42.4815 39.5888 42.0806 40.0756C40.6197 41.823 38.8723 43.814 38.6431 44.3869C38.371 45.06 38.4283 45.5613 38.9583 45.9624C39.345 46.2489 40.0325 46.3061 40.7629 46.2489C42.0806 46.1628 42.9973 45.8335 43.4556 45.6329C44.1718 45.3751 44.9882 44.9883 45.776 44.4154C47.2082 43.3557 48.0819 41.8518 47.996 39.8466C47.953 38.7437 47.595 37.6552 47.151 36.6239C47.2799 36.4377 47.4089 36.2514 47.5377 36.051C49.8007 32.7423 51.5481 29.1044 51.5481 29.1044C51.5481 29.1044 51.72 30.2216 52.2499 32.0549C52.5219 32.9859 53.0663 34.003 53.5533 35.0056C51.4335 36.7386 50.1015 38.7438 49.6431 40.0616C48.7981 42.4964 49.4569 43.5993 50.703 43.8571C51.2615 43.9717 52.0637 43.7139 52.6651 43.4561C53.4099 43.2126 54.3123 42.7971 55.1431 42.1813C56.5754 41.1214 57.9504 39.6462 57.8788 37.6553C57.8358 36.7386 57.5923 35.8363 57.2629 34.9769C59.0676 34.2321 61.4021 33.8024 64.3671 34.1605C70.7408 34.9053 72.0012 38.8871 71.7578 40.5485C71.5143 42.2101 70.1823 43.1267 69.7382 43.4131C69.2942 43.6852 69.1509 43.7856 69.1939 43.986C69.2512 44.287 69.4517 44.2725 69.8384 44.2153C70.3684 44.1293 73.19 42.8547 73.3046 39.7897C73.4764 35.8503 69.7382 31.5535 63.1067 31.5963V31.5963ZM13.9505 48.1679C11.845 50.4739 8.88016 51.3476 7.61975 50.6028C6.25907 49.815 6.78888 46.4205 9.38146 43.9713C10.957 42.4817 13.0052 41.1067 14.3515 40.2616C14.6523 40.0754 15.1106 39.8035 15.6549 39.4739C15.7408 39.4167 15.7981 39.3879 15.7981 39.3879C15.8984 39.3307 16.013 39.259 16.1275 39.1874C17.0872 42.6822 16.1705 45.7473 13.9505 48.1679V48.1679ZM29.3476 37.6978C28.6171 39.4882 27.0702 44.0859 26.1393 43.828C25.337 43.6132 24.8502 40.1327 25.9816 36.6952C26.5545 34.962 27.7719 32.8997 28.4881 32.0974C29.6484 30.8084 30.9086 30.3787 31.2239 30.9086C31.5963 31.5963 29.8059 36.5807 29.3476 37.6978ZM42.052 43.7708C41.7369 43.9284 41.4504 44.0429 41.3215 43.9571C41.2213 43.8998 41.4503 43.685 41.4503 43.685C41.4503 43.685 43.0401 41.9805 43.6703 41.1928C44.0284 40.7346 44.4581 40.2046 44.9164 39.6029V39.7748C44.9166 41.8372 42.94 43.2122 42.052 43.7708ZM51.8487 41.5364C51.6195 41.3645 51.6483 40.8346 52.4216 39.1731C52.7226 38.5143 53.4099 37.4114 54.5987 36.3658C54.7419 36.7955 54.828 37.2107 54.8136 37.5976C54.7994 40.1757 52.966 41.1353 51.8487 41.5364Z" fill="#CF649A"/>
</g>
<defs>
<clipPath id="clip0">
<rect width="73.3333" height="55" fill="white"/>
</clipPath>
</defs>
</svg>
