<svg width="66" height="55" viewBox="0 0 66 55" fill="none" xmlns="http://www.w3.org/2000/svg">
<path d="M54.6289 0H10.3711C7.40472 0 5 2.40472 5 5.37109V49.6289C5 52.5953 7.40472 55 10.3711 55H54.6289C57.5953 55 60 52.5953 60 49.6289V5.37109C60 2.40472 57.5953 0 54.6289 0Z" fill="#3178C6"/>
<path d="M54.6289 0H10.3711C7.40472 0 5 2.40472 5 5.37109V49.6289C5 52.5953 7.40472 55 10.3711 55H54.6289C57.5953 55 60 52.5953 60 49.6289V5.37109C60 2.40472 57.5953 0 54.6289 0Z" fill="#3178C6"/>
<path fill-rule="evenodd" clip-rule="evenodd" d="M39.0462 43.7663V49.1439C39.9204 49.5921 40.9543 49.9281 42.148 50.1522C43.3417 50.3762 44.5997 50.4883 45.9223 50.4883C47.2112 50.4883 48.4356 50.3651 49.5957 50.1185C50.7557 49.8721 51.7729 49.4659 52.6471 48.9002C53.5213 48.3345 54.2134 47.595 54.7233 46.6819C55.2333 45.7688 55.4883 44.6401 55.4883 43.2957C55.4883 42.321 55.3426 41.4668 55.0512 40.733C54.7597 39.9992 54.3395 39.3466 53.7903 38.7752C53.2411 38.2038 52.5826 37.6912 51.8149 37.2375C51.0471 36.7837 50.1813 36.3552 49.2174 35.952C48.5113 35.6606 47.8781 35.3778 47.3177 35.1033C46.7572 34.8287 46.2809 34.5487 45.8886 34.2631C45.4963 33.9773 45.1937 33.6748 44.9808 33.3556C44.7679 33.0362 44.6613 32.6749 44.6613 32.2716C44.6613 31.9019 44.7566 31.5686 44.9472 31.2717C45.1378 30.9748 45.4067 30.72 45.7541 30.5071C46.1017 30.2943 46.5275 30.1289 47.0318 30.0113C47.5363 29.8937 48.0966 29.8349 48.7131 29.8349C49.1613 29.8349 49.6349 29.8685 50.1336 29.9357C50.6324 30.0029 51.1339 30.1066 51.6384 30.2466C52.1427 30.3866 52.633 30.5631 53.1094 30.7759C53.5857 30.9888 54.0256 31.2353 54.4291 31.5154V26.4907C53.611 26.177 52.7171 25.9445 51.7476 25.7933C50.7782 25.642 49.6657 25.5664 48.4105 25.5664C47.1327 25.5664 45.9223 25.7037 44.7791 25.9782C43.6359 26.2526 42.63 26.6811 41.7613 27.2637C40.8927 27.8463 40.2062 28.5885 39.7019 29.4904C39.1975 30.3922 38.9453 31.4705 38.9453 32.7253C38.9453 34.3274 39.4077 35.6942 40.3323 36.8258C41.2569 37.9573 42.6607 38.9152 44.5437 39.6995C45.2834 40.002 45.9727 40.2988 46.6116 40.5901C47.2504 40.8814 47.8025 41.1839 48.2675 41.4976C48.7326 41.8113 49.0997 42.153 49.3688 42.5227C49.6378 42.8924 49.7723 43.3125 49.7723 43.7831C49.7723 44.1304 49.6881 44.4525 49.52 44.7494C49.3519 45.0463 49.0969 45.3039 48.7551 45.5224C48.4133 45.7409 47.9873 45.9117 47.4774 46.0349C46.9674 46.1582 46.3706 46.2198 45.6869 46.2198C44.5213 46.2198 43.3669 46.0153 42.2236 45.6064C41.0804 45.1975 40.0212 44.5842 39.0462 43.7663V43.7663ZM30.0057 30.5166H36.9043V26.1035H17.6758V30.5166H24.5407V50.166H30.0057V30.5166Z" fill="white"/>
</svg>
