<svg width="74" height="63" viewBox="0 0 74 63" fill="none" xmlns="http://www.w3.org/2000/svg">
<g filter="url(#filter0_d)">
<path d="M58.6289 0H14.3711C11.4047 0 9 2.40472 9 5.37109V49.6289C9 52.5953 11.4047 55 14.3711 55H58.6289C61.5953 55 64 52.5953 64 49.6289V5.37109C64 2.40472 61.5953 0 58.6289 0Z" fill="#3178C6"/>
<path d="M58.6289 0H14.3711C11.4047 0 9 2.40472 9 5.37109V49.6289C9 52.5953 11.4047 55 14.3711 55H58.6289C61.5953 55 64 52.5953 64 49.6289V5.37109C64 2.40472 61.5953 0 58.6289 0Z" fill="#3178C6"/>
<path fill-rule="evenodd" clip-rule="evenodd" d="M43.0462 43.7663V49.1439C43.9204 49.5921 44.9543 49.9281 46.148 50.1522C47.3417 50.3762 48.5997 50.4883 49.9223 50.4883C51.2112 50.4883 52.4356 50.3651 53.5957 50.1185C54.7557 49.8721 55.7729 49.4659 56.6471 48.9002C57.5213 48.3345 58.2134 47.595 58.7233 46.6819C59.2333 45.7688 59.4883 44.6401 59.4883 43.2957C59.4883 42.321 59.3426 41.4668 59.0512 40.733C58.7597 39.9992 58.3395 39.3466 57.7903 38.7752C57.2411 38.2038 56.5826 37.6912 55.8149 37.2375C55.0471 36.7837 54.1813 36.3552 53.2174 35.952C52.5113 35.6606 51.8781 35.3778 51.3177 35.1033C50.7572 34.8287 50.2809 34.5487 49.8886 34.2631C49.4963 33.9773 49.1937 33.6748 48.9808 33.3556C48.7679 33.0362 48.6613 32.6749 48.6613 32.2716C48.6613 31.9019 48.7566 31.5686 48.9472 31.2717C49.1378 30.9748 49.4067 30.72 49.7541 30.5071C50.1017 30.2943 50.5275 30.1289 51.0318 30.0113C51.5363 29.8937 52.0966 29.8349 52.7131 29.8349C53.1613 29.8349 53.6349 29.8685 54.1336 29.9357C54.6324 30.0029 55.1339 30.1066 55.6384 30.2466C56.1427 30.3866 56.633 30.5631 57.1094 30.7759C57.5857 30.9888 58.0256 31.2353 58.4291 31.5154V26.4907C57.611 26.177 56.7171 25.9445 55.7476 25.7933C54.7782 25.642 53.6657 25.5664 52.4105 25.5664C51.1327 25.5664 49.9223 25.7037 48.7791 25.9782C47.6359 26.2526 46.63 26.6811 45.7613 27.2637C44.8927 27.8463 44.2062 28.5885 43.7019 29.4904C43.1975 30.3922 42.9453 31.4705 42.9453 32.7253C42.9453 34.3274 43.4077 35.6942 44.3323 36.8258C45.2569 37.9573 46.6607 38.9152 48.5437 39.6995C49.2834 40.002 49.9727 40.2988 50.6116 40.5901C51.2504 40.8814 51.8025 41.1839 52.2675 41.4976C52.7326 41.8113 53.0997 42.153 53.3688 42.5227C53.6378 42.8924 53.7723 43.3125 53.7723 43.7831C53.7723 44.1304 53.6881 44.4525 53.52 44.7494C53.3519 45.0463 53.0969 45.3039 52.7551 45.5224C52.4133 45.7409 51.9873 45.9117 51.4774 46.0349C50.9674 46.1582 50.3706 46.2198 49.6869 46.2198C48.5213 46.2198 47.3669 46.0153 46.2236 45.6064C45.0804 45.1975 44.0212 44.5842 43.0462 43.7663V43.7663ZM34.0057 30.5166H40.9043V26.1035H21.6758V30.5166H28.5407V50.166H34.0057V30.5166Z" fill="white"/>
</g>
<g filter="url(#filter1_d)">
<rect x="4" y="29" width="66" height="15" rx="5" fill="#DED9D4" fill-opacity="0.74"/>
</g>
<path d="M16.6216 33.2754H14.1831V40H12.835V33.2754H10.418V32.1797H16.6216V33.2754ZM19.1191 38.1309L20.3008 34.1885H21.6919L19.3823 40.8809C19.0278 41.8584 18.4263 42.3472 17.5776 42.3472C17.3879 42.3472 17.1784 42.3149 16.9492 42.2505V41.2407L17.1963 41.2568C17.5257 41.2568 17.7728 41.196 17.9375 41.0742C18.1058 40.9561 18.2383 40.7555 18.335 40.4727L18.5229 39.9731L16.4819 34.1885H17.8892L19.1191 38.1309ZM27.5356 37.1533C27.5356 38.0521 27.3315 38.77 26.9233 39.3071C26.5151 39.8407 25.9673 40.1074 25.2798 40.1074C24.6424 40.1074 24.1322 39.8979 23.749 39.479V42.2344H22.4438V34.1885H23.647L23.7007 34.7793C24.0838 34.3138 24.6048 34.0811 25.2637 34.0811C25.9727 34.0811 26.5277 34.346 26.9287 34.876C27.3333 35.4023 27.5356 36.1346 27.5356 37.0728V37.1533ZM26.2358 37.0405C26.2358 36.4604 26.1195 36.0003 25.8867 35.6602C25.6576 35.32 25.3281 35.1499 24.8984 35.1499C24.3649 35.1499 23.9818 35.3701 23.749 35.8105V38.3887C23.9854 38.8398 24.3721 39.0654 24.9092 39.0654C25.3245 39.0654 25.6486 38.8989 25.8813 38.5659C26.1177 38.2293 26.2358 37.7209 26.2358 37.0405ZM31.2041 40.1074C30.377 40.1074 29.7056 39.8478 29.1899 39.3286C28.6779 38.8058 28.4219 38.1112 28.4219 37.2446V37.0835C28.4219 36.5034 28.5329 35.986 28.7549 35.5312C28.9805 35.0729 29.2956 34.7166 29.7002 34.4624C30.1048 34.2082 30.556 34.0811 31.0537 34.0811C31.8451 34.0811 32.4556 34.3335 32.8853 34.8384C33.3185 35.3433 33.5352 36.0576 33.5352 36.9814V37.5078H29.7378C29.7772 37.9876 29.9365 38.3672 30.2158 38.6465C30.4987 38.9258 30.8532 39.0654 31.2793 39.0654C31.8773 39.0654 32.3643 38.8237 32.7402 38.3403L33.4438 39.0117C33.2111 39.359 32.8996 39.6294 32.5093 39.8228C32.1226 40.0125 31.6875 40.1074 31.2041 40.1074ZM31.0483 35.1284C30.6903 35.1284 30.4002 35.2537 30.1782 35.5044C29.9598 35.755 29.8201 36.1042 29.7593 36.5518H32.2461V36.4551C32.2174 36.0182 32.1011 35.6888 31.897 35.4668C31.6929 35.2412 31.41 35.1284 31.0483 35.1284ZM38.7666 37.9858C38.7666 37.6421 38.6449 37.3771 38.4014 37.1909C38.1615 37.0047 37.7264 36.8167 37.0962 36.627C36.466 36.4372 35.9647 36.2259 35.5923 35.9932C34.8797 35.5456 34.5234 34.9619 34.5234 34.2422C34.5234 33.612 34.7795 33.0928 35.2915 32.6846C35.8071 32.2764 36.4749 32.0723 37.2949 32.0723C37.8392 32.0723 38.3244 32.1725 38.7505 32.373C39.1766 32.5736 39.5114 32.86 39.7549 33.2324C39.9984 33.6012 40.1201 34.0112 40.1201 34.4624H38.7666C38.7666 34.0542 38.6377 33.7355 38.3799 33.5063C38.1257 33.2736 37.7604 33.1572 37.2842 33.1572C36.8402 33.1572 36.4946 33.2521 36.2476 33.4419C36.0041 33.6317 35.8823 33.8966 35.8823 34.2368C35.8823 34.5233 36.0148 34.7632 36.2798 34.9565C36.5448 35.1463 36.9816 35.3325 37.5903 35.5151C38.1991 35.6942 38.6878 35.9001 39.0566 36.1328C39.4255 36.362 39.6958 36.627 39.8677 36.9277C40.0396 37.2249 40.1255 37.5741 40.1255 37.9751C40.1255 38.6268 39.8748 39.146 39.3735 39.5327C38.8758 39.9159 38.1991 40.1074 37.3433 40.1074C36.7775 40.1074 36.2565 40.0036 35.7803 39.7959C35.3076 39.5846 34.9388 39.2946 34.6738 38.9258C34.4124 38.557 34.2817 38.1273 34.2817 37.6367H35.6406C35.6406 38.0807 35.7874 38.4245 36.0811 38.668C36.3747 38.9115 36.7954 39.0332 37.3433 39.0332C37.8159 39.0332 38.1704 38.9383 38.4067 38.7485C38.6466 38.5552 38.7666 38.3009 38.7666 37.9858ZM43.5791 39.0654C43.9049 39.0654 44.1753 38.9705 44.3901 38.7808C44.605 38.591 44.7196 38.3564 44.7339 38.0771H45.9639C45.9495 38.4388 45.8368 38.7772 45.6255 39.0923C45.4142 39.4038 45.1278 39.6509 44.7661 39.8335C44.4045 40.0161 44.0142 40.1074 43.5952 40.1074C42.7824 40.1074 42.1379 39.8442 41.6616 39.3179C41.1854 38.7915 40.9473 38.0646 40.9473 37.1372V37.0029C40.9473 36.1185 41.1836 35.4113 41.6562 34.8813C42.1289 34.3478 42.7734 34.0811 43.5898 34.0811C44.2809 34.0811 44.8431 34.2834 45.2764 34.688C45.7132 35.089 45.9424 35.6172 45.9639 36.2725H44.7339C44.7196 35.9395 44.605 35.6655 44.3901 35.4507C44.1789 35.2358 43.9085 35.1284 43.5791 35.1284C43.1566 35.1284 42.8307 35.2824 42.6016 35.5903C42.3724 35.8947 42.256 36.3584 42.2524 36.9814V37.1909C42.2524 37.8211 42.3652 38.292 42.5908 38.6035C42.82 38.9115 43.1494 39.0654 43.5791 39.0654ZM49.9922 35.3809C49.8203 35.3522 49.6431 35.3379 49.4604 35.3379C48.8625 35.3379 48.4596 35.5671 48.252 36.0254V40H46.9468V34.1885H48.1929L48.2251 34.8384C48.5402 34.3335 48.9771 34.0811 49.5356 34.0811C49.7218 34.0811 49.8758 34.1061 49.9976 34.1562L49.9922 35.3809ZM52.2051 40H50.8999V34.1885H52.2051V40ZM50.8193 32.6792C50.8193 32.4787 50.882 32.3122 51.0073 32.1797C51.1362 32.0472 51.3188 31.981 51.5552 31.981C51.7915 31.981 51.9741 32.0472 52.103 32.1797C52.2319 32.3122 52.2964 32.4787 52.2964 32.6792C52.2964 32.8761 52.2319 33.0409 52.103 33.1733C51.9741 33.3022 51.7915 33.3667 51.5552 33.3667C51.3188 33.3667 51.1362 33.3022 51.0073 33.1733C50.882 33.0409 50.8193 32.8761 50.8193 32.6792ZM58.7202 37.1533C58.7202 38.0521 58.5161 38.77 58.1079 39.3071C57.6997 39.8407 57.1519 40.1074 56.4644 40.1074C55.827 40.1074 55.3167 39.8979 54.9336 39.479V42.2344H53.6284V34.1885H54.8315L54.8853 34.7793C55.2684 34.3138 55.7894 34.0811 56.4482 34.0811C57.1572 34.0811 57.7122 34.346 58.1133 34.876C58.5179 35.4023 58.7202 36.1346 58.7202 37.0728V37.1533ZM57.4204 37.0405C57.4204 36.4604 57.304 36.0003 57.0713 35.6602C56.8421 35.32 56.5127 35.1499 56.083 35.1499C55.5495 35.1499 55.1663 35.3701 54.9336 35.8105V38.3887C55.1699 38.8398 55.5566 39.0654 56.0938 39.0654C56.5091 39.0654 56.8332 38.8989 57.0659 38.5659C57.3022 38.2293 57.4204 37.7209 57.4204 37.0405ZM61.4648 32.7759V34.1885H62.4907V35.1553H61.4648V38.3994C61.4648 38.6214 61.5078 38.7826 61.5938 38.8828C61.6833 38.9795 61.8408 39.0278 62.0664 39.0278C62.2168 39.0278 62.369 39.0099 62.5229 38.9741V39.9839C62.2257 40.0662 61.9393 40.1074 61.6636 40.1074C60.661 40.1074 60.1597 39.5542 60.1597 38.4478V35.1553H59.2036V34.1885H60.1597V32.7759H61.4648Z" fill="#2E4057"/>
<defs>
<filter id="filter0_d" x="5" y="0" width="63" height="63" filterUnits="userSpaceOnUse" color-interpolation-filters="sRGB">
<feFlood flood-opacity="0" result="BackgroundImageFix"/>
<feColorMatrix in="SourceAlpha" type="matrix" values="0 0 0 0 0 0 0 0 0 0 0 0 0 0 0 0 0 0 127 0"/>
<feOffset dy="4"/>
<feGaussianBlur stdDeviation="2"/>
<feColorMatrix type="matrix" values="0 0 0 0 0 0 0 0 0 0 0 0 0 0 0 0 0 0 0.25 0"/>
<feBlend mode="normal" in2="BackgroundImageFix" result="effect1_dropShadow"/>
<feBlend mode="normal" in="SourceGraphic" in2="effect1_dropShadow" result="shape"/>
</filter>
<filter id="filter1_d" x="0" y="29" width="74" height="23" filterUnits="userSpaceOnUse" color-interpolation-filters="sRGB">
<feFlood flood-opacity="0" result="BackgroundImageFix"/>
<feColorMatrix in="SourceAlpha" type="matrix" values="0 0 0 0 0 0 0 0 0 0 0 0 0 0 0 0 0 0 127 0"/>
<feOffset dy="4"/>
<feGaussianBlur stdDeviation="2"/>
<feColorMatrix type="matrix" values="0 0 0 0 0 0 0 0 0 0 0 0 0 0 0 0 0 0 0.25 0"/>
<feBlend mode="normal" in2="BackgroundImageFix" result="effect1_dropShadow"/>
<feBlend mode="normal" in="SourceGraphic" in2="effect1_dropShadow" result="shape"/>
</filter>
</defs>
</svg>
