<svg width="194" height="61" viewBox="0 0 194 61" fill="none" xmlns="http://www.w3.org/2000/svg">
<g filter="url(#filter0_i)">
<rect width="194" height="61" rx="5" fill="#2E4057" fill-opacity="0.6"/>
<path d="M37.1465 42H34.2168L30.7012 36.1113C30.3789 35.5645 30.0664 35.1006 29.7637 34.7197C29.4609 34.3291 29.1484 34.0117 28.8262 33.7676C28.5137 33.5234 28.1719 33.3477 27.8008 33.2402C27.4395 33.123 27.0293 33.0645 26.5703 33.0645H24.5488V42H22.0879V20.9941H28.3574C29.2754 20.9941 30.1201 21.1113 30.8916 21.3457C31.6729 21.5703 32.3467 21.917 32.9131 22.3857C33.4893 22.8545 33.9385 23.4404 34.2607 24.1436C34.583 24.8369 34.7441 25.6523 34.7441 26.5898C34.7441 27.3223 34.6318 27.9961 34.4072 28.6113C34.1924 29.2168 33.8799 29.7588 33.4697 30.2373C33.0693 30.7158 32.5811 31.126 32.0049 31.4678C31.4385 31.7998 30.7988 32.0586 30.0859 32.2441V32.3027C30.4375 32.459 30.7402 32.6396 30.9941 32.8447C31.2578 33.04 31.5068 33.2744 31.7412 33.5479C31.9756 33.8213 32.2051 34.1338 32.4297 34.4854C32.6641 34.8271 32.9229 35.2275 33.2061 35.6865L37.1465 42ZM24.5488 23.2207V30.8379H27.8887C28.5039 30.8379 29.0703 30.7451 29.5879 30.5596C30.1152 30.374 30.5693 30.1104 30.9502 29.7686C31.3311 29.417 31.6289 28.9922 31.8438 28.4941C32.0586 27.9863 32.166 27.4199 32.166 26.7949C32.166 25.6719 31.7998 24.7979 31.0674 24.1729C30.3447 23.5381 29.2949 23.2207 27.918 23.2207H24.5488ZM50.9014 35.1006H40.3105C40.3496 36.7705 40.7988 38.0596 41.6582 38.9678C42.5176 39.876 43.6992 40.3301 45.2031 40.3301C46.8926 40.3301 48.4453 39.7734 49.8613 38.6602V40.916C48.543 41.873 46.7998 42.3516 44.6318 42.3516C42.5127 42.3516 40.8477 41.6729 39.6367 40.3154C38.4258 38.9482 37.8203 37.0293 37.8203 34.5586C37.8203 32.2246 38.4795 30.3252 39.7979 28.8604C41.126 27.3857 42.7715 26.6484 44.7344 26.6484C46.6973 26.6484 48.2158 27.2832 49.29 28.5527C50.3643 29.8223 50.9014 31.585 50.9014 33.8408V35.1006ZM48.4404 33.0645C48.4307 31.6777 48.0938 30.5986 47.4297 29.8271C46.7754 29.0557 45.8623 28.6699 44.6904 28.6699C43.5576 28.6699 42.5957 29.0752 41.8047 29.8857C41.0137 30.6963 40.5254 31.7559 40.3398 33.0645H48.4404ZM48.0596 19.3535L44.2217 24.1582H42.3613L45.6279 19.3535H48.0596ZM65.2861 42H62.8838V39.6562H62.8252C61.7803 41.4531 60.2422 42.3516 58.2109 42.3516C56.7168 42.3516 55.5449 41.9561 54.6953 41.165C53.8555 40.374 53.4355 39.3242 53.4355 38.0156C53.4355 35.2129 55.0859 33.582 58.3867 33.123L62.8838 32.4932C62.8838 29.9443 61.8535 28.6699 59.793 28.6699C57.9863 28.6699 56.3555 29.2852 54.9004 30.5156V28.0547C56.375 27.1172 58.0742 26.6484 59.998 26.6484C63.5234 26.6484 65.2861 28.5137 65.2861 32.2441V42ZM62.8838 34.4121L59.2656 34.9102C58.1523 35.0664 57.3125 35.3447 56.7461 35.7451C56.1797 36.1357 55.8965 36.834 55.8965 37.8398C55.8965 38.5723 56.1553 39.1729 56.6729 39.6416C57.2002 40.1006 57.8984 40.3301 58.7676 40.3301C59.959 40.3301 60.9404 39.915 61.7119 39.085C62.4932 38.2451 62.8838 37.1855 62.8838 35.9062V34.4121ZM72.2148 42H69.8125V19.793H72.2148V42ZM78.3086 23.1914C77.8789 23.1914 77.5127 23.0449 77.21 22.752C76.9072 22.459 76.7559 22.0879 76.7559 21.6387C76.7559 21.1895 76.9072 20.8184 77.21 20.5254C77.5127 20.2227 77.8789 20.0713 78.3086 20.0713C78.748 20.0713 79.1191 20.2227 79.4219 20.5254C79.7344 20.8184 79.8906 21.1895 79.8906 21.6387C79.8906 22.0684 79.7344 22.4346 79.4219 22.7373C79.1191 23.04 78.748 23.1914 78.3086 23.1914ZM79.4805 42H77.0781V27H79.4805V42ZM83.4355 41.458V38.8799C84.7441 39.8467 86.1846 40.3301 87.7568 40.3301C89.8662 40.3301 90.9209 39.627 90.9209 38.2207C90.9209 37.8203 90.8281 37.4834 90.6426 37.21C90.4668 36.9268 90.2227 36.6777 89.9102 36.4629C89.6074 36.248 89.2461 36.0576 88.8262 35.8916C88.416 35.7158 87.9717 35.5352 87.4932 35.3496C86.8291 35.0859 86.2432 34.8223 85.7354 34.5586C85.2373 34.2852 84.8174 33.9824 84.4756 33.6504C84.1436 33.3086 83.8896 32.9229 83.7139 32.4932C83.5479 32.0635 83.4648 31.5605 83.4648 30.9844C83.4648 30.2812 83.626 29.6611 83.9482 29.124C84.2705 28.5771 84.7002 28.123 85.2373 27.7617C85.7744 27.3906 86.3848 27.1123 87.0684 26.9268C87.7617 26.7412 88.4746 26.6484 89.207 26.6484C90.5059 26.6484 91.668 26.873 92.6934 27.3223V29.7539C91.5898 29.0312 90.3203 28.6699 88.8848 28.6699C88.4355 28.6699 88.0303 28.7236 87.6689 28.8311C87.3076 28.9287 86.9951 29.0703 86.7314 29.2559C86.4775 29.4414 86.2773 29.666 86.1309 29.9297C85.9941 30.1836 85.9258 30.4668 85.9258 30.7793C85.9258 31.1699 85.9941 31.4971 86.1309 31.7607C86.2773 32.0244 86.4873 32.2588 86.7607 32.4639C87.0342 32.6689 87.3662 32.8545 87.7568 33.0205C88.1475 33.1865 88.5918 33.3672 89.0898 33.5625C89.7539 33.8164 90.3496 34.0801 90.877 34.3535C91.4043 34.6172 91.8535 34.9199 92.2246 35.2617C92.5957 35.5938 92.8789 35.9795 93.0742 36.4189C93.2793 36.8584 93.3818 37.3809 93.3818 37.9863C93.3818 38.7285 93.2158 39.373 92.8838 39.9199C92.5615 40.4668 92.127 40.9209 91.5801 41.2822C91.0332 41.6436 90.4033 41.9121 89.6904 42.0879C88.9775 42.2637 88.2305 42.3516 87.4492 42.3516C85.9062 42.3516 84.5684 42.0537 83.4355 41.458ZM107.825 42H105.423V39.6562H105.364C104.319 41.4531 102.781 42.3516 100.75 42.3516C99.2559 42.3516 98.084 41.9561 97.2344 41.165C96.3945 40.374 95.9746 39.3242 95.9746 38.0156C95.9746 35.2129 97.625 33.582 100.926 33.123L105.423 32.4932C105.423 29.9443 104.393 28.6699 102.332 28.6699C100.525 28.6699 98.8945 29.2852 97.4395 30.5156V28.0547C98.9141 27.1172 100.613 26.6484 102.537 26.6484C106.062 26.6484 107.825 28.5137 107.825 32.2441V42ZM105.423 34.4121L101.805 34.9102C100.691 35.0664 99.8516 35.3447 99.2852 35.7451C98.7188 36.1357 98.4355 36.834 98.4355 37.8398C98.4355 38.5723 98.6943 39.1729 99.2119 39.6416C99.7393 40.1006 100.438 40.3301 101.307 40.3301C102.498 40.3301 103.479 39.915 104.251 39.085C105.032 38.2451 105.423 37.1855 105.423 35.9062V34.4121ZM119.31 41.8535C118.743 42.166 117.996 42.3223 117.068 42.3223C114.441 42.3223 113.128 40.8574 113.128 37.9277V29.0508H110.55V27H113.128V23.3379L115.53 22.5615V27H119.31V29.0508H115.53V37.5029C115.53 38.5088 115.701 39.2266 116.043 39.6562C116.385 40.0859 116.951 40.3008 117.742 40.3008C118.348 40.3008 118.87 40.1348 119.31 39.8027V41.8535ZM123.748 23.1914C123.318 23.1914 122.952 23.0449 122.649 22.752C122.347 22.459 122.195 22.0879 122.195 21.6387C122.195 21.1895 122.347 20.8184 122.649 20.5254C122.952 20.2227 123.318 20.0713 123.748 20.0713C124.188 20.0713 124.559 20.2227 124.861 20.5254C125.174 20.8184 125.33 21.1895 125.33 21.6387C125.33 22.0684 125.174 22.4346 124.861 22.7373C124.559 23.04 124.188 23.1914 123.748 23.1914ZM124.92 42H122.518V27H124.92V42ZM136.053 42.3516C133.836 42.3516 132.063 41.6533 130.735 40.2568C129.417 38.8506 128.758 36.9902 128.758 34.6758C128.758 32.1562 129.446 30.1885 130.823 28.7725C132.2 27.3564 134.061 26.6484 136.404 26.6484C138.641 26.6484 140.384 27.3369 141.634 28.7139C142.894 30.0908 143.523 32 143.523 34.4414C143.523 36.834 142.845 38.7529 141.487 40.1982C140.14 41.6338 138.328 42.3516 136.053 42.3516ZM136.229 28.6699C134.686 28.6699 133.465 29.1973 132.566 30.252C131.668 31.2969 131.219 32.7422 131.219 34.5879C131.219 36.3652 131.673 37.7666 132.581 38.792C133.489 39.8174 134.705 40.3301 136.229 40.3301C137.781 40.3301 138.973 39.8271 139.803 38.8213C140.643 37.8154 141.062 36.3848 141.062 34.5293C141.062 32.6543 140.643 31.209 139.803 30.1934C138.973 29.1777 137.781 28.6699 136.229 28.6699ZM159.812 42H157.41V33.4453C157.41 30.2617 156.248 28.6699 153.924 28.6699C152.723 28.6699 151.727 29.124 150.936 30.0322C150.154 30.9307 149.764 32.0684 149.764 33.4453V42H147.361V27H149.764V29.4902H149.822C150.955 27.5957 152.596 26.6484 154.744 26.6484C156.385 26.6484 157.64 27.1807 158.509 28.2451C159.378 29.2998 159.812 30.8281 159.812 32.8301V42ZM163.445 41.458V38.8799C164.754 39.8467 166.194 40.3301 167.767 40.3301C169.876 40.3301 170.931 39.627 170.931 38.2207C170.931 37.8203 170.838 37.4834 170.652 37.21C170.477 36.9268 170.232 36.6777 169.92 36.4629C169.617 36.248 169.256 36.0576 168.836 35.8916C168.426 35.7158 167.981 35.5352 167.503 35.3496C166.839 35.0859 166.253 34.8223 165.745 34.5586C165.247 34.2852 164.827 33.9824 164.485 33.6504C164.153 33.3086 163.899 32.9229 163.724 32.4932C163.558 32.0635 163.475 31.5605 163.475 30.9844C163.475 30.2812 163.636 29.6611 163.958 29.124C164.28 28.5771 164.71 28.123 165.247 27.7617C165.784 27.3906 166.395 27.1123 167.078 26.9268C167.771 26.7412 168.484 26.6484 169.217 26.6484C170.516 26.6484 171.678 26.873 172.703 27.3223V29.7539C171.6 29.0312 170.33 28.6699 168.895 28.6699C168.445 28.6699 168.04 28.7236 167.679 28.8311C167.317 28.9287 167.005 29.0703 166.741 29.2559C166.487 29.4414 166.287 29.666 166.141 29.9297C166.004 30.1836 165.936 30.4668 165.936 30.7793C165.936 31.1699 166.004 31.4971 166.141 31.7607C166.287 32.0244 166.497 32.2588 166.771 32.4639C167.044 32.6689 167.376 32.8545 167.767 33.0205C168.157 33.1865 168.602 33.3672 169.1 33.5625C169.764 33.8164 170.359 34.0801 170.887 34.3535C171.414 34.6172 171.863 34.9199 172.234 35.2617C172.605 35.5938 172.889 35.9795 173.084 36.4189C173.289 36.8584 173.392 37.3809 173.392 37.9863C173.392 38.7285 173.226 39.373 172.894 39.9199C172.571 40.4668 172.137 40.9209 171.59 41.2822C171.043 41.6436 170.413 41.9121 169.7 42.0879C168.987 42.2637 168.24 42.3516 167.459 42.3516C165.916 42.3516 164.578 42.0537 163.445 41.458Z" fill="#D1D1D1"/>
</g>
<defs>
<filter id="filter0_i" x="0" y="0" width="194" height="65" filterUnits="userSpaceOnUse" color-interpolation-filters="sRGB">
<feFlood flood-opacity="0" result="BackgroundImageFix"/>
<feBlend mode="normal" in="SourceGraphic" in2="BackgroundImageFix" result="shape"/>
<feColorMatrix in="SourceAlpha" type="matrix" values="0 0 0 0 0 0 0 0 0 0 0 0 0 0 0 0 0 0 127 0" result="hardAlpha"/>
<feOffset dy="4"/>
<feGaussianBlur stdDeviation="2"/>
<feComposite in2="hardAlpha" operator="arithmetic" k2="-1" k3="1"/>
<feColorMatrix type="matrix" values="0 0 0 0 0 0 0 0 0 0 0 0 0 0 0 0 0 0 0.25 0"/>
<feBlend mode="normal" in2="shape" result="effect1_innerShadow"/>
</filter>
</defs>
</svg>
