<svg width="140" height="61" viewBox="0 0 140 61" fill="none" xmlns="http://www.w3.org/2000/svg">
<rect width="140" height="61" rx="5" fill="#2E4057" fill-opacity="0.6"/>
<path d="M30.5078 34.4707C30.5078 36.9609 29.9805 38.8994 28.9258 40.2861C27.8711 41.6631 26.46 42.3516 24.6924 42.3516C23.8721 42.3516 23.1982 42.2344 22.6709 42V39.5684C23.1982 39.9492 23.8818 40.1396 24.7217 40.1396C26.9385 40.1396 28.0469 38.2598 28.0469 34.5V20.9941H30.5078V34.4707ZM41.8018 42.3516C39.585 42.3516 37.8125 41.6533 36.4844 40.2568C35.166 38.8506 34.5068 36.9902 34.5068 34.6758C34.5068 32.1562 35.1953 30.1885 36.5723 28.7725C37.9492 27.3564 39.8096 26.6484 42.1533 26.6484C44.3896 26.6484 46.1328 27.3369 47.3828 28.7139C48.6426 30.0908 49.2725 32 49.2725 34.4414C49.2725 36.834 48.5938 38.7529 47.2363 40.1982C45.8887 41.6338 44.0771 42.3516 41.8018 42.3516ZM41.9775 28.6699C40.4346 28.6699 39.2139 29.1973 38.3154 30.252C37.417 31.2969 36.9678 32.7422 36.9678 34.5879C36.9678 36.3652 37.4219 37.7666 38.3301 38.792C39.2383 39.8174 40.4541 40.3301 41.9775 40.3301C43.5303 40.3301 44.7217 39.8271 45.5518 38.8213C46.3916 37.8154 46.8115 36.3848 46.8115 34.5293C46.8115 32.6543 46.3916 31.209 45.5518 30.1934C44.7217 29.1777 43.5303 28.6699 41.9775 28.6699ZM65.2393 42H62.8369V39.627H62.7783C61.7822 41.4434 60.2393 42.3516 58.1494 42.3516C54.5752 42.3516 52.7881 40.2227 52.7881 35.9648V27H55.1758V35.584C55.1758 38.748 56.3867 40.3301 58.8086 40.3301C59.9805 40.3301 60.9424 39.9004 61.6943 39.041C62.4561 38.1719 62.8369 37.0391 62.8369 35.6426V27H65.2393V42ZM77.9248 29.4316C77.5049 29.1094 76.8994 28.9482 76.1084 28.9482C75.083 28.9482 74.2236 29.4316 73.5303 30.3984C72.8467 31.3652 72.5049 32.6836 72.5049 34.3535V42H70.1025V27H72.5049V30.0908H72.5635C72.9053 29.0361 73.4277 28.2158 74.1309 27.6299C74.834 27.0342 75.6201 26.7363 76.4893 26.7363C77.1143 26.7363 77.5928 26.8047 77.9248 26.9414V29.4316ZM92.9834 42H90.5811V33.4453C90.5811 30.2617 89.4189 28.6699 87.0947 28.6699C85.8936 28.6699 84.8975 29.124 84.1064 30.0322C83.3252 30.9307 82.9346 32.0684 82.9346 33.4453V42H80.5322V27H82.9346V29.4902H82.9932C84.126 27.5957 85.7666 26.6484 87.915 26.6484C89.5557 26.6484 90.8105 27.1807 91.6797 28.2451C92.5488 29.2998 92.9834 30.8281 92.9834 32.8301V42ZM108.262 42H105.859V39.6562H105.801C104.756 41.4531 103.218 42.3516 101.187 42.3516C99.6924 42.3516 98.5205 41.9561 97.6709 41.165C96.8311 40.374 96.4111 39.3242 96.4111 38.0156C96.4111 35.2129 98.0615 33.582 101.362 33.123L105.859 32.4932C105.859 29.9443 104.829 28.6699 102.769 28.6699C100.962 28.6699 99.3311 29.2852 97.876 30.5156V28.0547C99.3506 27.1172 101.05 26.6484 102.974 26.6484C106.499 26.6484 108.262 28.5137 108.262 32.2441V42ZM105.859 34.4121L102.241 34.9102C101.128 35.0664 100.288 35.3447 99.7217 35.7451C99.1553 36.1357 98.8721 36.834 98.8721 37.8398C98.8721 38.5723 99.1309 39.1729 99.6484 39.6416C100.176 40.1006 100.874 40.3301 101.743 40.3301C102.935 40.3301 103.916 39.915 104.688 39.085C105.469 38.2451 105.859 37.1855 105.859 35.9062V34.4121ZM115.19 42H112.788V19.793H115.19V42Z" fill="#F4F2F0"/>
</svg>
