<svg width="110" height="61" viewBox="0 0 110 61" fill="none" xmlns="http://www.w3.org/2000/svg">
<rect width="110" height="61" rx="5" fill="#2E4057" fill-opacity="0.6"/>
<path d="M53.4473 41.1211C51.8945 41.9414 49.9609 42.3516 47.6465 42.3516C44.6582 42.3516 42.2656 41.3896 40.4688 39.4658C38.6719 37.542 37.7734 35.0176 37.7734 31.8926C37.7734 28.5332 38.7842 25.8184 40.8057 23.748C42.8271 21.6777 45.3906 20.6426 48.4961 20.6426C50.4883 20.6426 52.1387 20.9307 53.4473 21.5068V24.1289C51.9434 23.2891 50.2832 22.8691 48.4668 22.8691C46.0547 22.8691 44.0967 23.6748 42.5928 25.2861C41.0986 26.8975 40.3516 29.0508 40.3516 31.7461C40.3516 34.3047 41.0498 36.3457 42.4463 37.8691C43.8525 39.3828 45.6934 40.1396 47.9688 40.1396C50.0781 40.1396 51.9043 39.6709 53.4473 38.7334V41.1211ZM73.3398 20.9941L65.5615 42H62.8516L55.2344 20.9941H57.9736L63.7891 37.6494C63.9746 38.1865 64.1162 38.8066 64.2139 39.5098H64.2725C64.3506 38.9238 64.5117 38.2939 64.7559 37.6201L70.6885 20.9941H73.3398Z" fill="#F4F2F0"/>
</svg>
