<svg width="140" height="61" viewBox="0 0 140 61" fill="none" xmlns="http://www.w3.org/2000/svg">
<g filter="url(#filter0_i)">
<rect width="140" height="61" rx="5" fill="#DED9D4" fill-opacity="0.8"/>
<path d="M40.4688 42H29.5703V20.9941H32.0312V39.7734H40.4688V42ZM54.1064 42H51.7041V39.6562H51.6455C50.6006 41.4531 49.0625 42.3516 47.0312 42.3516C45.5371 42.3516 44.3652 41.9561 43.5156 41.165C42.6758 40.374 42.2559 39.3242 42.2559 38.0156C42.2559 35.2129 43.9062 33.582 47.207 33.123L51.7041 32.4932C51.7041 29.9443 50.6738 28.6699 48.6133 28.6699C46.8066 28.6699 45.1758 29.2852 43.7207 30.5156V28.0547C45.1953 27.1172 46.8945 26.6484 48.8184 26.6484C52.3438 26.6484 54.1064 28.5137 54.1064 32.2441V42ZM51.7041 34.4121L48.0859 34.9102C46.9727 35.0664 46.1328 35.3447 45.5664 35.7451C45 36.1357 44.7168 36.834 44.7168 37.8398C44.7168 38.5723 44.9756 39.1729 45.4932 39.6416C46.0205 40.1006 46.7188 40.3301 47.5879 40.3301C48.7793 40.3301 49.7607 39.915 50.5322 39.085C51.3135 38.2451 51.7041 37.1855 51.7041 35.9062V34.4121ZM71.084 42H68.6816V33.4453C68.6816 30.2617 67.5195 28.6699 65.1953 28.6699C63.9941 28.6699 62.998 29.124 62.207 30.0322C61.4258 30.9307 61.0352 32.0684 61.0352 33.4453V42H58.6328V27H61.0352V29.4902H61.0938C62.2266 27.5957 63.8672 26.6484 66.0156 26.6484C67.6562 26.6484 68.9111 27.1807 69.7803 28.2451C70.6494 29.2998 71.084 30.8281 71.084 32.8301V42ZM85.8496 41.3115C84.6973 42.0049 83.3301 42.3516 81.748 42.3516C79.6094 42.3516 77.8809 41.6582 76.5625 40.2715C75.2539 38.875 74.5996 37.0684 74.5996 34.8516C74.5996 32.3809 75.3076 30.3984 76.7236 28.9043C78.1396 27.4004 80.0293 26.6484 82.3926 26.6484C83.7109 26.6484 84.873 26.8926 85.8789 27.3809V29.8418C84.7656 29.0605 83.5742 28.6699 82.3047 28.6699C80.7715 28.6699 79.5117 29.2217 78.5254 30.3252C77.5488 31.4189 77.0605 32.8594 77.0605 34.6465C77.0605 36.4043 77.5195 37.791 78.4375 38.8066C79.3652 39.8223 80.6055 40.3301 82.1582 40.3301C83.4668 40.3301 84.6973 39.8955 85.8496 39.0264V41.3115ZM101.538 35.1006H90.9473C90.9863 36.7705 91.4355 38.0596 92.2949 38.9678C93.1543 39.876 94.3359 40.3301 95.8398 40.3301C97.5293 40.3301 99.082 39.7734 100.498 38.6602V40.916C99.1797 41.873 97.4365 42.3516 95.2686 42.3516C93.1494 42.3516 91.4844 41.6729 90.2734 40.3154C89.0625 38.9482 88.457 37.0293 88.457 34.5586C88.457 32.2246 89.1162 30.3252 90.4346 28.8604C91.7627 27.3857 93.4082 26.6484 95.3711 26.6484C97.334 26.6484 98.8525 27.2832 99.9268 28.5527C101.001 29.8223 101.538 31.585 101.538 33.8408V35.1006ZM99.0771 33.0645C99.0674 31.6777 98.7305 30.5986 98.0664 29.8271C97.4121 29.0557 96.499 28.6699 95.3271 28.6699C94.1943 28.6699 93.2324 29.0752 92.4414 29.8857C91.6504 30.6963 91.1621 31.7559 90.9766 33.0645H99.0771ZM113.008 29.4316C112.588 29.1094 111.982 28.9482 111.191 28.9482C110.166 28.9482 109.307 29.4316 108.613 30.3984C107.93 31.3652 107.588 32.6836 107.588 34.3535V42H105.186V27H107.588V30.0908H107.646C107.988 29.0361 108.511 28.2158 109.214 27.6299C109.917 27.0342 110.703 26.7363 111.572 26.7363C112.197 26.7363 112.676 26.8047 113.008 26.9414V29.4316Z" fill="#2E4057" fill-opacity="0.6"/>
</g>
<defs>
<filter id="filter0_i" x="0" y="0" width="140" height="65" filterUnits="userSpaceOnUse" color-interpolation-filters="sRGB">
<feFlood flood-opacity="0" result="BackgroundImageFix"/>
<feBlend mode="normal" in="SourceGraphic" in2="BackgroundImageFix" result="shape"/>
<feColorMatrix in="SourceAlpha" type="matrix" values="0 0 0 0 0 0 0 0 0 0 0 0 0 0 0 0 0 0 127 0" result="hardAlpha"/>
<feOffset dy="4"/>
<feGaussianBlur stdDeviation="2"/>
<feComposite in2="hardAlpha" operator="arithmetic" k2="-1" k3="1"/>
<feColorMatrix type="matrix" values="0 0 0 0 0 0 0 0 0 0 0 0 0 0 0 0 0 0 0.25 0"/>
<feBlend mode="normal" in2="shape" result="effect1_innerShadow"/>
</filter>
</defs>
</svg>
