<svg width="140" height="61" viewBox="0 0 140 61" fill="none" xmlns="http://www.w3.org/2000/svg">
<rect width="140" height="61" rx="5" fill="black" fill-opacity="0.58"/>
<path d="M42.8271 42H40.1025L37.876 36.1113H28.9697L26.875 42H24.1357L32.1924 20.9941H34.7412L42.8271 42ZM37.0703 33.8994L33.7744 24.9492C33.667 24.6562 33.5596 24.1875 33.4521 23.543H33.3936C33.2959 24.1387 33.1836 24.6074 33.0566 24.9492L29.79 33.8994H37.0703ZM34.917 19.0605H33.0566L29.2188 14.2559H31.6797L34.917 19.0605ZM65.6348 27L59.6582 42H57.2998L51.6162 27H54.2529L58.0615 37.8984C58.3447 38.6992 58.5205 39.3975 58.5889 39.9932H58.6475C58.7451 39.2412 58.9014 38.5625 59.1162 37.957L63.1006 27H65.6348ZM80.2832 35.1006H69.6924C69.7314 36.7705 70.1807 38.0596 71.04 38.9678C71.8994 39.876 73.0811 40.3301 74.585 40.3301C76.2744 40.3301 77.8271 39.7734 79.2432 38.6602V40.916C77.9248 41.873 76.1816 42.3516 74.0137 42.3516C71.8945 42.3516 70.2295 41.6729 69.0186 40.3154C67.8076 38.9482 67.2021 37.0293 67.2021 34.5586C67.2021 32.2246 67.8613 30.3252 69.1797 28.8604C70.5078 27.3857 72.1533 26.6484 74.1162 26.6484C76.0791 26.6484 77.5977 27.2832 78.6719 28.5527C79.7461 29.8223 80.2832 31.585 80.2832 33.8408V35.1006ZM77.8223 33.0645C77.8125 31.6777 77.4756 30.5986 76.8115 29.8271C76.1572 29.0557 75.2441 28.6699 74.0723 28.6699C72.9395 28.6699 71.9775 29.0752 71.1865 29.8857C70.3955 30.6963 69.9072 31.7559 69.7217 33.0645H77.8223ZM96.3818 42H93.9795V33.4453C93.9795 30.2617 92.8174 28.6699 90.4932 28.6699C89.292 28.6699 88.2959 29.124 87.5049 30.0322C86.7236 30.9307 86.333 32.0684 86.333 33.4453V42H83.9307V27H86.333V29.4902H86.3916C87.5244 27.5957 89.165 26.6484 91.3135 26.6484C92.9541 26.6484 94.209 27.1807 95.0781 28.2451C95.9473 29.2998 96.3818 30.8281 96.3818 32.8301V42ZM102.153 23.1914C101.724 23.1914 101.357 23.0449 101.055 22.752C100.752 22.459 100.601 22.0879 100.601 21.6387C100.601 21.1895 100.752 20.8184 101.055 20.5254C101.357 20.2227 101.724 20.0713 102.153 20.0713C102.593 20.0713 102.964 20.2227 103.267 20.5254C103.579 20.8184 103.735 21.1895 103.735 21.6387C103.735 22.0684 103.579 22.4346 103.267 22.7373C102.964 23.04 102.593 23.1914 102.153 23.1914ZM103.325 42H100.923V27H103.325V42ZM116.011 29.4316C115.591 29.1094 114.985 28.9482 114.194 28.9482C113.169 28.9482 112.31 29.4316 111.616 30.3984C110.933 31.3652 110.591 32.6836 110.591 34.3535V42H108.188V27H110.591V30.0908H110.649C110.991 29.0361 111.514 28.2158 112.217 27.6299C112.92 27.0342 113.706 26.7363 114.575 26.7363C115.2 26.7363 115.679 26.8047 116.011 26.9414V29.4316Z" fill="#F4F2F0"/>
</svg>
