<svg width="327" height="162" viewBox="0 0 327 162" fill="none" xmlns="http://www.w3.org/2000/svg">
<path d="M58.525 134.8L57.4 136.475C58.875 137.325 61.575 139.125 62.775 140.025L63.95 138.325C62.875 137.525 60 135.625 58.525 134.8ZM54.775 152.675L55.925 154.7C58.25 154.225 61.7 153.05 64.225 151.6C68.2 149.25 71.675 146.025 73.825 142.65L72.625 140.6C70.6 144.125 67.3 147.375 63.15 149.75C60.625 151.2 57.525 152.2 54.775 152.675ZM54.75 140.425L53.65 142.125C55.15 142.9 57.875 144.65 59.1 145.55L60.25 143.8C59.15 143 56.225 141.225 54.75 140.425ZM81.375 135.5V137.575C82 137.525 82.825 137.5 83.65 137.5H93.75C94.475 137.5 95.35 137.525 96.075 137.575V135.5C95.35 135.6 94.45 135.65 93.75 135.65H83.625C82.825 135.65 82.075 135.575 81.375 135.5ZM78.375 141.775V143.85C79.075 143.8 79.8 143.8 80.55 143.8H88.05C87.975 146.15 87.7 148.25 86.6 150C85.625 151.575 83.825 153.025 81.875 153.825L83.725 155.2C85.85 154.1 87.75 152.3 88.65 150.625C89.65 148.775 90.05 146.5 90.125 143.8H96.925C97.525 143.8 98.325 143.825 98.875 143.85V141.775C98.275 141.875 97.45 141.9 96.925 141.9H80.55C79.775 141.9 79.075 141.85 78.375 141.775ZM102.561 147.55L103.511 149.4C106.336 148.525 109.236 147.225 111.336 146.1V153.75C111.336 154.525 111.286 155.55 111.236 155.95H113.536C113.436 155.55 113.411 154.525 113.411 153.75V144.85C115.686 143.375 117.811 141.55 119.061 140.175L117.511 138.675C116.236 140.275 113.936 142.325 111.561 143.775C109.536 145.025 105.861 146.775 102.561 147.55ZM143.386 135.525C143.386 134.65 144.086 133.925 144.961 133.925C145.861 133.925 146.586 134.65 146.586 135.525C146.586 136.425 145.861 137.125 144.961 137.125C144.086 137.125 143.386 136.425 143.386 135.525ZM142.236 135.525C142.236 137.05 143.461 138.25 144.961 138.25C146.486 138.25 147.711 137.05 147.711 135.525C147.711 134.025 146.486 132.775 144.961 132.775C143.461 132.775 142.236 134.025 142.236 135.525ZM138.061 134.725H135.711C135.811 135.1 135.886 135.95 135.886 136.5V139.075H128.936C128.136 139.075 127.511 139.025 126.811 138.95V141.05C127.486 141 128.186 140.975 128.936 140.975H135.886V152.25C135.886 152.9 135.586 153.2 134.911 153.2C134.261 153.2 133.111 153.1 132.036 152.9L132.211 154.9C133.211 155 134.711 155.075 135.761 155.075C137.261 155.075 137.911 154.4 137.911 153.075V140.975H144.536C145.136 140.975 145.886 140.975 146.561 141.025V138.95C145.936 139.025 145.111 139.075 144.511 139.075H137.911V136.525C137.911 135.975 137.986 135.075 138.061 134.725ZM143.011 144L141.311 144.9C142.636 146.475 144.511 149.6 145.486 151.55L147.336 150.525C146.336 148.725 144.336 145.6 143.011 144ZM132.561 144.825L130.811 143.975C129.836 146 127.686 148.975 126.036 150.525L127.761 151.675C129.161 150.15 131.511 146.975 132.561 144.825ZM161.586 139.6L159.761 140.225C160.286 141.35 161.436 144.525 161.711 145.65L163.561 145C163.236 143.9 162.011 140.6 161.586 139.6ZM170.636 141L168.486 140.325C168.111 143.525 166.811 146.7 165.036 148.875C162.986 151.45 159.811 153.35 156.911 154.2L158.561 155.875C161.361 154.8 164.411 152.875 166.711 149.925C168.511 147.675 169.586 145 170.261 142.25C170.361 141.925 170.461 141.525 170.636 141ZM155.786 140.85L153.936 141.575C154.436 142.45 155.786 145.9 156.161 147.2L158.061 146.5C157.586 145.2 156.286 141.925 155.786 140.85ZM194.636 136.05C194.636 135.125 195.386 134.375 196.286 134.375C197.211 134.375 197.961 135.125 197.961 136.05C197.961 136.95 197.211 137.7 196.286 137.7C195.386 137.7 194.636 136.95 194.636 136.05ZM193.486 136.05C193.486 136.325 193.536 136.6 193.611 136.85C193.311 136.875 193.036 136.875 192.811 136.875H180.261C179.436 136.875 178.461 136.8 177.761 136.7V138.925C178.411 138.9 179.261 138.85 180.261 138.85H193.036C192.711 141.25 191.536 144.725 189.761 147C187.686 149.675 184.861 151.8 180.011 153L181.711 154.875C186.311 153.45 189.286 151.125 191.561 148.2C193.536 145.625 194.761 141.6 195.286 138.975C195.311 138.875 195.336 138.775 195.336 138.7C195.636 138.8 195.961 138.85 196.286 138.85C197.836 138.85 199.111 137.6 199.111 136.05C199.111 134.5 197.836 133.225 196.286 133.225C194.736 133.225 193.486 134.5 193.486 136.05ZM222.211 145.25C222.211 140.175 218.486 136.05 212.636 136.05C206.536 136.05 201.711 140.8 201.711 146.225C201.711 150.35 203.936 152.9 206.161 152.9C208.486 152.9 210.461 150.275 211.986 145.125C212.686 142.8 213.161 140.25 213.486 137.925C217.736 138.275 220.161 141.4 220.161 145.175C220.161 149.5 217.011 151.875 213.811 152.6C213.236 152.725 212.461 152.85 211.661 152.925L212.836 154.775C218.761 154 222.211 150.5 222.211 145.25ZM203.661 146.05C203.661 142.65 206.611 138.55 211.411 137.95C211.136 140.25 210.636 142.625 210.011 144.7C208.736 148.925 207.411 150.6 206.236 150.6C205.111 150.6 203.661 149.2 203.661 146.05ZM239.036 147.375H234.686V147V143.65H239.036V147.375ZM243.836 143.65V142.7C244.936 143.575 246.136 144.325 247.411 144.875C247.686 144.4 248.286 143.675 248.686 143.325C246.986 142.65 245.411 141.65 244.011 140.425C245.286 139.5 246.786 138.3 247.936 137.2L246.536 136.2C245.661 137.15 244.211 138.475 242.961 139.425C242.386 138.825 241.836 138.175 241.336 137.5C242.536 136.625 243.911 135.45 245.011 134.35L243.611 133.35C242.836 134.225 241.636 135.4 240.536 136.325C239.911 135.325 239.386 134.275 238.961 133.175L237.361 133.65C238.611 136.875 240.511 139.75 242.936 141.925H231.186C233.411 140.05 235.311 137.6 236.386 134.675L235.161 134.075L234.836 134.15H227.711V135.8H233.911C233.286 136.975 232.486 138.075 231.586 139.1C230.786 138.35 229.561 137.375 228.561 136.65L227.411 137.625C228.436 138.4 229.661 139.45 230.411 140.25C228.861 141.675 227.061 142.8 225.336 143.5C225.686 143.85 226.236 144.5 226.486 144.9C227.736 144.325 229.011 143.6 230.211 142.7V143.65H232.836V146.975V147.375H227.086V149.1H232.636C232.186 151.175 230.761 153.15 226.586 154.55C226.961 154.9 227.536 155.6 227.761 156.025C232.661 154.325 234.136 151.775 234.536 149.1H239.036V153.1C239.036 155.15 239.586 155.7 241.686 155.7H244.961C246.786 155.7 247.311 154.825 247.486 151.65C246.986 151.525 246.211 151.2 245.811 150.875C245.711 153.55 245.586 154.05 244.811 154.05H241.961C241.111 154.05 240.961 153.9 240.961 153.125V149.1H246.886V147.375H240.961V143.65H243.836ZM255.986 143.875H268.036V146.475H255.986V143.875ZM255.986 139.725H268.036V142.3H255.986V139.725ZM255.986 135.625H268.036V138.175H255.986V135.625ZM266.761 153.95C265.686 153.95 265.486 153.825 265.486 153.1V148.125H269.911V133.95H254.186V148.125H257.561C257.036 151.325 255.711 153.275 250.586 154.3C250.961 154.675 251.486 155.45 251.636 155.925C257.311 154.625 258.911 152.125 259.511 148.125H263.611V153.125C263.611 155.15 264.236 155.7 266.586 155.7H270.611C272.711 155.7 273.261 154.8 273.486 151.175C272.961 151.05 272.161 150.75 271.761 150.425C271.661 153.5 271.461 153.95 270.461 153.95H266.761Z" fill="#00E2AC"/>
<path d="M40.133 99.252C40.133 106.13 38.252 111.317 34.49 114.813C30.766 118.271 25.56 120 18.872 120H7.529V79.302H20.069C24.173 79.302 27.726 80.062 30.728 81.582C33.73 83.102 36.048 85.344 37.682 88.308C39.316 91.234 40.133 94.882 40.133 99.252ZM34.718 99.423C34.718 93.989 33.369 90.018 30.671 87.51C28.011 84.964 24.23 83.691 19.328 83.691H12.659V115.611H18.188C29.208 115.611 34.718 110.215 34.718 99.423ZM62.9027 120H48.1967V117.036L52.9847 115.953V83.406L48.1967 82.266V79.302H62.9027V82.266L58.1147 83.406V115.953L62.9027 117.036V120ZM96.1261 109.113C96.1261 112.723 94.8151 115.535 92.1931 117.549C89.5711 119.563 86.0371 120.57 81.5911 120.57C79.3111 120.57 77.2021 120.399 75.2641 120.057C73.3261 119.715 71.7111 119.24 70.4191 118.632V113.73C71.7871 114.338 73.4781 114.889 75.4921 115.383C77.5441 115.877 79.6531 116.124 81.8191 116.124C84.8591 116.124 87.1391 115.535 88.6591 114.357C90.2171 113.179 90.9961 111.583 90.9961 109.569C90.9961 108.239 90.7111 107.118 90.1411 106.206C89.5711 105.294 88.5831 104.458 87.1771 103.698C85.8091 102.9 83.8901 102.064 81.4201 101.19C77.9621 99.936 75.3401 98.397 73.5541 96.573C71.8061 94.749 70.9321 92.26 70.9321 89.106C70.9321 86.94 71.4831 85.097 72.5851 83.577C73.6871 82.019 75.2071 80.822 77.1451 79.986C79.1211 79.15 81.3821 78.732 83.9281 78.732C86.1701 78.732 88.2221 78.941 90.0841 79.359C91.9461 79.777 93.6371 80.328 95.1571 81.012L93.5611 85.401C92.1551 84.793 90.6161 84.28 88.9441 83.862C87.3101 83.444 85.6001 83.235 83.8141 83.235C81.2681 83.235 79.3491 83.786 78.0571 84.888C76.7651 85.952 76.1191 87.377 76.1191 89.163C76.1191 90.531 76.4041 91.671 76.9741 92.583C77.5441 93.495 78.4751 94.312 79.7671 95.034C81.0591 95.756 82.8071 96.535 85.0111 97.371C87.4051 98.245 89.4191 99.195 91.0531 100.221C92.7251 101.209 93.9791 102.406 94.8151 103.812C95.6891 105.218 96.1261 106.985 96.1261 109.113ZM124.046 83.235C119.676 83.235 116.237 84.698 113.729 87.624C111.221 90.55 109.967 94.559 109.967 99.651C109.967 104.705 111.126 108.714 113.444 111.678C115.8 114.604 119.315 116.067 123.989 116.067C125.775 116.067 127.466 115.915 129.062 115.611C130.658 115.307 132.216 114.927 133.736 114.471V118.917C132.216 119.487 130.639 119.905 129.005 120.171C127.409 120.437 125.49 120.57 123.248 120.57C119.106 120.57 115.648 119.715 112.874 118.005C110.1 116.295 108.01 113.863 106.604 110.709C105.236 107.555 104.552 103.85 104.552 99.594C104.552 95.49 105.293 91.88 106.775 88.764C108.295 85.61 110.518 83.159 113.444 81.411C116.37 79.625 119.923 78.732 124.103 78.732C128.397 78.732 132.14 79.53 135.332 81.126L133.28 85.458C132.026 84.888 130.62 84.375 129.062 83.919C127.542 83.463 125.87 83.235 124.046 83.235ZM179.297 99.594C179.297 103.812 178.575 107.498 177.131 110.652C175.725 113.768 173.635 116.2 170.861 117.948C168.087 119.696 164.648 120.57 160.544 120.57C156.326 120.57 152.811 119.696 149.999 117.948C147.225 116.2 145.154 113.749 143.786 110.595C142.418 107.441 141.734 103.755 141.734 99.537C141.734 95.357 142.418 91.709 143.786 88.593C145.154 85.477 147.225 83.045 149.999 81.297C152.811 79.549 156.345 78.675 160.601 78.675C164.667 78.675 168.087 79.549 170.861 81.297C173.635 83.007 175.725 85.439 177.131 88.593C178.575 91.709 179.297 95.376 179.297 99.594ZM147.149 99.594C147.149 104.724 148.232 108.771 150.398 111.735C152.564 114.661 155.946 116.124 160.544 116.124C165.18 116.124 168.562 114.661 170.69 111.735C172.818 108.771 173.882 104.724 173.882 99.594C173.882 94.464 172.818 90.455 170.69 87.567C168.562 84.641 165.199 83.178 160.601 83.178C156.003 83.178 152.602 84.641 150.398 87.567C148.232 90.455 147.149 94.464 147.149 99.594ZM218.711 79.302L204.176 120H199.046L184.511 79.302H189.869L199.046 105.408C199.654 107.08 200.167 108.657 200.585 110.139C201.003 111.583 201.345 112.97 201.611 114.3C201.877 112.97 202.219 111.564 202.637 110.082C203.055 108.6 203.568 107.004 204.176 105.294L213.296 79.302H218.711ZM249.241 120H226.498V79.302H249.241V83.805H231.628V96.516H248.215V100.962H231.628V115.497H249.241V120ZM271.68 79.302C276.734 79.302 280.458 80.271 282.852 82.209C285.284 84.109 286.5 86.997 286.5 90.873C286.5 93.039 286.101 94.844 285.303 96.288C284.505 97.732 283.479 98.891 282.225 99.765C281.009 100.601 279.717 101.266 278.349 101.76L289.521 120H283.536L273.675 103.185H265.581V120H260.451V79.302H271.68ZM271.395 83.748H265.581V98.853H271.68C274.986 98.853 277.399 98.207 278.919 96.915C280.439 95.585 281.199 93.647 281.199 91.101C281.199 88.441 280.401 86.56 278.805 85.458C277.209 84.318 274.739 83.748 271.395 83.748ZM308.791 99.309L319.393 79.302H324.922L311.356 104.211V120H306.226V104.439L292.66 79.302H298.246L308.791 99.309Z" fill="#7546D9"/>
<path d="M32.24 18.4C26.1067 18.4 21.28 20.4533 17.76 24.56C14.24 28.6667 12.48 34.2933 12.48 41.44C12.48 48.5333 14.1067 54.16 17.36 58.32C20.6667 62.4267 25.6 64.48 32.16 64.48C34.6667 64.48 37.04 64.2667 39.28 63.84C41.52 63.4133 43.7067 62.88 45.84 62.24V68.48C43.7067 69.28 41.4933 69.8667 39.2 70.24C36.96 70.6133 34.2667 70.8 31.12 70.8C25.3067 70.8 20.4533 69.6 16.56 67.2C12.6667 64.8 9.73333 61.3867 7.76 56.96C5.84 52.5333 4.88 47.3333 4.88 41.36C4.88 35.6 5.92 30.5333 8 26.16C10.1333 21.7333 13.2533 18.2933 17.36 15.84C21.4667 13.3333 26.4533 12.08 32.32 12.08C38.3467 12.08 43.6 13.2 48.08 15.44L45.2 21.52C43.44 20.72 41.4667 20 39.28 19.36C37.1467 18.72 34.8 18.4 32.24 18.4ZM74.3869 70H53.7469V65.84L60.4669 64.32V18.64L53.7469 17.04V12.88H74.3869V17.04L67.6669 18.64V64.32L74.3869 65.84V70ZM103.496 70H96.2963V19.2H78.4563V12.88H121.256V19.2H103.496V70ZM144.749 40.96L159.629 12.88H167.389L148.349 47.84V70H141.149V48.16L122.109 12.88H129.949L144.749 40.96ZM190.302 12.88C197.769 12.88 203.209 14.3467 206.622 17.28C210.035 20.2133 211.742 24.3467 211.742 29.68C211.742 32.8267 211.022 35.7867 209.582 38.56C208.195 41.28 205.822 43.4933 202.462 45.2C199.155 46.9067 194.649 47.76 188.942 47.76H182.382V70H175.182V12.88H190.302ZM189.662 19.04H182.382V41.6H188.142C193.582 41.6 197.635 40.72 200.302 38.96C202.969 37.2 204.302 34.2133 204.302 30C204.302 26.32 203.129 23.5733 200.782 21.76C198.435 19.9467 194.729 19.04 189.662 19.04ZM273.459 41.36C273.459 47.28 272.446 52.4533 270.419 56.88C268.446 61.2533 265.513 64.6667 261.619 67.12C257.726 69.5733 252.899 70.8 247.139 70.8C241.219 70.8 236.286 69.5733 232.339 67.12C228.446 64.6667 225.539 61.2267 223.619 56.8C221.699 52.3733 220.739 47.2 220.739 41.28C220.739 35.4133 221.699 30.2933 223.619 25.92C225.539 21.5467 228.446 18.1333 232.339 15.68C236.286 13.2267 241.246 12 247.219 12C252.926 12 257.726 13.2267 261.619 15.68C265.513 18.08 268.446 21.4933 270.419 25.92C272.446 30.2933 273.459 35.44 273.459 41.36ZM228.339 41.36C228.339 48.56 229.859 54.24 232.899 58.4C235.939 62.5067 240.686 64.56 247.139 64.56C253.646 64.56 258.393 62.5067 261.379 58.4C264.366 54.24 265.859 48.56 265.859 41.36C265.859 34.16 264.366 28.5333 261.379 24.48C258.393 20.3733 253.673 18.32 247.219 18.32C240.766 18.32 235.993 20.3733 232.899 24.48C229.859 28.5333 228.339 34.16 228.339 41.36ZM301.239 12.88C308.706 12.88 314.146 14.3467 317.559 17.28C320.973 20.2133 322.679 24.3467 322.679 29.68C322.679 32.8267 321.959 35.7867 320.519 38.56C319.133 41.28 316.759 43.4933 313.399 45.2C310.093 46.9067 305.586 47.76 299.879 47.76H293.319V70H286.119V12.88H301.239ZM300.599 19.04H293.319V41.6H299.079C304.519 41.6 308.573 40.72 311.239 38.96C313.906 37.2 315.239 34.2133 315.239 30C315.239 26.32 314.066 23.5733 311.719 21.76C309.373 19.9467 305.666 19.04 300.599 19.04Z" fill="#D450D7"/>
</svg>
