<svg width="188" height="60" viewBox="0 0 188 60" fill="none" xmlns="http://www.w3.org/2000/svg">
<g filter="url(#filter0_i)">
<rect width="188" height="60" rx="5" fill="#2E4057" fill-opacity="0.6"/>
<path d="M21.417 42V20.9941H27.2178C34.6201 20.9941 38.3213 24.4072 38.3213 31.2334C38.3213 34.4756 37.291 37.083 35.2305 39.0557C33.1797 41.0186 30.4307 42 26.9834 42H21.417ZM23.8779 23.2207V39.7734H27.0127C29.7666 39.7734 31.9102 39.0361 33.4434 37.5615C34.9766 36.0869 35.7432 33.9971 35.7432 31.292C35.7432 25.9111 32.8818 23.2207 27.1592 23.2207H23.8779ZM54.1855 35.1006H43.5947C43.6338 36.7705 44.083 38.0596 44.9424 38.9678C45.8018 39.876 46.9834 40.3301 48.4873 40.3301C50.1768 40.3301 51.7295 39.7734 53.1455 38.6602V40.916C51.8271 41.873 50.084 42.3516 47.916 42.3516C45.7969 42.3516 44.1318 41.6729 42.9209 40.3154C41.71 38.9482 41.1045 37.0293 41.1045 34.5586C41.1045 32.2246 41.7637 30.3252 43.082 28.8604C44.4102 27.3857 46.0557 26.6484 48.0186 26.6484C49.9814 26.6484 51.5 27.2832 52.5742 28.5527C53.6484 29.8223 54.1855 31.585 54.1855 33.8408V35.1006ZM51.7246 33.0645C51.7148 31.6777 51.3779 30.5986 50.7139 29.8271C50.0596 29.0557 49.1465 28.6699 47.9746 28.6699C46.8418 28.6699 45.8799 29.0752 45.0889 29.8857C44.2979 30.6963 43.8096 31.7559 43.624 33.0645H51.7246ZM56.9248 41.458V38.8799C58.2334 39.8467 59.6738 40.3301 61.2461 40.3301C63.3555 40.3301 64.4102 39.627 64.4102 38.2207C64.4102 37.8203 64.3174 37.4834 64.1318 37.21C63.9561 36.9268 63.7119 36.6777 63.3994 36.4629C63.0967 36.248 62.7354 36.0576 62.3154 35.8916C61.9053 35.7158 61.4609 35.5352 60.9824 35.3496C60.3184 35.0859 59.7324 34.8223 59.2246 34.5586C58.7266 34.2852 58.3066 33.9824 57.9648 33.6504C57.6328 33.3086 57.3789 32.9229 57.2031 32.4932C57.0371 32.0635 56.9541 31.5605 56.9541 30.9844C56.9541 30.2812 57.1152 29.6611 57.4375 29.124C57.7598 28.5771 58.1895 28.123 58.7266 27.7617C59.2637 27.3906 59.874 27.1123 60.5576 26.9268C61.251 26.7412 61.9639 26.6484 62.6963 26.6484C63.9951 26.6484 65.1572 26.873 66.1826 27.3223V29.7539C65.0791 29.0312 63.8096 28.6699 62.374 28.6699C61.9248 28.6699 61.5195 28.7236 61.1582 28.8311C60.7969 28.9287 60.4844 29.0703 60.2207 29.2559C59.9668 29.4414 59.7666 29.666 59.6201 29.9297C59.4834 30.1836 59.415 30.4668 59.415 30.7793C59.415 31.1699 59.4834 31.4971 59.6201 31.7607C59.7666 32.0244 59.9766 32.2588 60.25 32.4639C60.5234 32.6689 60.8555 32.8545 61.2461 33.0205C61.6367 33.1865 62.0811 33.3672 62.5791 33.5625C63.2432 33.8164 63.8389 34.0801 64.3662 34.3535C64.8936 34.6172 65.3428 34.9199 65.7139 35.2617C66.085 35.5938 66.3682 35.9795 66.5635 36.4189C66.7686 36.8584 66.8711 37.3809 66.8711 37.9863C66.8711 38.7285 66.7051 39.373 66.373 39.9199C66.0508 40.4668 65.6162 40.9209 65.0693 41.2822C64.5225 41.6436 63.8926 41.9121 63.1797 42.0879C62.4668 42.2637 61.7197 42.3516 60.9385 42.3516C59.3955 42.3516 58.0576 42.0537 56.9248 41.458ZM80.8018 41.3115C79.6494 42.0049 78.2822 42.3516 76.7002 42.3516C74.5615 42.3516 72.833 41.6582 71.5146 40.2715C70.2061 38.875 69.5518 37.0684 69.5518 34.8516C69.5518 32.3809 70.2598 30.3984 71.6758 28.9043C73.0918 27.4004 74.9814 26.6484 77.3447 26.6484C78.6631 26.6484 79.8252 26.8926 80.8311 27.3809V29.8418C79.7178 29.0605 78.5264 28.6699 77.2568 28.6699C75.7236 28.6699 74.4639 29.2217 73.4775 30.3252C72.501 31.4189 72.0127 32.8594 72.0127 34.6465C72.0127 36.4043 72.4717 37.791 73.3896 38.8066C74.3174 39.8223 75.5576 40.3301 77.1104 40.3301C78.4189 40.3301 79.6494 39.8955 80.8018 39.0264V41.3115ZM92.2568 29.4316C91.8369 29.1094 91.2314 28.9482 90.4404 28.9482C89.415 28.9482 88.5557 29.4316 87.8623 30.3984C87.1787 31.3652 86.8369 32.6836 86.8369 34.3535V42H84.4346V27H86.8369V30.0908H86.8955C87.2373 29.0361 87.7598 28.2158 88.4629 27.6299C89.166 27.0342 89.9521 26.7363 90.8213 26.7363C91.4463 26.7363 91.9248 26.8047 92.2568 26.9414V29.4316ZM96.0947 23.1914C95.665 23.1914 95.2988 23.0449 94.9961 22.752C94.6934 22.459 94.542 22.0879 94.542 21.6387C94.542 21.1895 94.6934 20.8184 94.9961 20.5254C95.2988 20.2227 95.665 20.0713 96.0947 20.0713C96.5342 20.0713 96.9053 20.2227 97.208 20.5254C97.5205 20.8184 97.6768 21.1895 97.6768 21.6387C97.6768 22.0684 97.5205 22.4346 97.208 22.7373C96.9053 23.04 96.5342 23.1914 96.0947 23.1914ZM97.2666 42H94.8643V27H97.2666V42ZM104.591 39.832H104.532V48.8994H102.13V27H104.532V29.6367H104.591C105.772 27.6445 107.501 26.6484 109.776 26.6484C111.71 26.6484 113.219 27.3223 114.303 28.6699C115.387 30.0078 115.929 31.8047 115.929 34.0605C115.929 36.5703 115.318 38.582 114.098 40.0957C112.877 41.5996 111.207 42.3516 109.088 42.3516C107.145 42.3516 105.646 41.5117 104.591 39.832ZM104.532 33.7822V35.877C104.532 37.1172 104.933 38.1719 105.733 39.041C106.544 39.9004 107.569 40.3301 108.81 40.3301C110.265 40.3301 111.402 39.7734 112.223 38.6602C113.053 37.5469 113.468 35.999 113.468 34.0166C113.468 32.3467 113.082 31.0381 112.311 30.0908C111.539 29.1436 110.494 28.6699 109.176 28.6699C107.779 28.6699 106.656 29.1582 105.807 30.1348C104.957 31.1016 104.532 32.3174 104.532 33.7822ZM126.725 41.8535C126.158 42.166 125.411 42.3223 124.483 42.3223C121.856 42.3223 120.543 40.8574 120.543 37.9277V29.0508H117.965V27H120.543V23.3379L122.945 22.5615V27H126.725V29.0508H122.945V37.5029C122.945 38.5088 123.116 39.2266 123.458 39.6562C123.8 40.0859 124.366 40.3008 125.157 40.3008C125.763 40.3008 126.285 40.1348 126.725 39.8027V41.8535ZM131.163 23.1914C130.733 23.1914 130.367 23.0449 130.064 22.752C129.762 22.459 129.61 22.0879 129.61 21.6387C129.61 21.1895 129.762 20.8184 130.064 20.5254C130.367 20.2227 130.733 20.0713 131.163 20.0713C131.603 20.0713 131.974 20.2227 132.276 20.5254C132.589 20.8184 132.745 21.1895 132.745 21.6387C132.745 22.0684 132.589 22.4346 132.276 22.7373C131.974 23.04 131.603 23.1914 131.163 23.1914ZM132.335 42H129.933V27H132.335V42ZM143.468 42.3516C141.251 42.3516 139.479 41.6533 138.15 40.2568C136.832 38.8506 136.173 36.9902 136.173 34.6758C136.173 32.1562 136.861 30.1885 138.238 28.7725C139.615 27.3564 141.476 26.6484 143.819 26.6484C146.056 26.6484 147.799 27.3369 149.049 28.7139C150.309 30.0908 150.938 32 150.938 34.4414C150.938 36.834 150.26 38.7529 148.902 40.1982C147.555 41.6338 145.743 42.3516 143.468 42.3516ZM143.644 28.6699C142.101 28.6699 140.88 29.1973 139.981 30.252C139.083 31.2969 138.634 32.7422 138.634 34.5879C138.634 36.3652 139.088 37.7666 139.996 38.792C140.904 39.8174 142.12 40.3301 143.644 40.3301C145.196 40.3301 146.388 39.8271 147.218 38.8213C148.058 37.8154 148.478 36.3848 148.478 34.5293C148.478 32.6543 148.058 31.209 147.218 30.1934C146.388 29.1777 145.196 28.6699 143.644 28.6699ZM167.228 42H164.825V33.4453C164.825 30.2617 163.663 28.6699 161.339 28.6699C160.138 28.6699 159.142 29.124 158.351 30.0322C157.569 30.9307 157.179 32.0684 157.179 33.4453V42H154.776V27H157.179V29.4902H157.237C158.37 27.5957 160.011 26.6484 162.159 26.6484C163.8 26.6484 165.055 27.1807 165.924 28.2451C166.793 29.2998 167.228 30.8281 167.228 32.8301V42Z" fill="#D1D1D1"/>
</g>
<defs>
<filter id="filter0_i" x="0" y="0" width="188" height="64" filterUnits="userSpaceOnUse" color-interpolation-filters="sRGB">
<feFlood flood-opacity="0" result="BackgroundImageFix"/>
<feBlend mode="normal" in="SourceGraphic" in2="BackgroundImageFix" result="shape"/>
<feColorMatrix in="SourceAlpha" type="matrix" values="0 0 0 0 0 0 0 0 0 0 0 0 0 0 0 0 0 0 127 0" result="hardAlpha"/>
<feOffset dy="4"/>
<feGaussianBlur stdDeviation="2"/>
<feComposite in2="hardAlpha" operator="arithmetic" k2="-1" k3="1"/>
<feColorMatrix type="matrix" values="0 0 0 0 0 0 0 0 0 0 0 0 0 0 0 0 0 0 0.25 0"/>
<feBlend mode="normal" in2="shape" result="effect1_innerShadow"/>
</filter>
</defs>
</svg>
