<svg width="33" height="33" viewBox="0 0 33 33" fill="none" xmlns="http://www.w3.org/2000/svg">
<path fill-rule="evenodd" clip-rule="evenodd" d="M16.5 1.03125C7.76359 1.03125 0.6875 8.10734 0.6875 16.8437C0.6875 23.8408 5.21383 29.7507 11.4993 31.8459C12.2899 31.9842 12.5864 31.5098 12.5864 31.0948C12.5864 30.7192 12.5666 29.474 12.5666 28.1497C8.59375 28.881 7.56594 27.1812 7.24969 26.2917C7.0718 25.8371 6.30094 24.4337 5.62891 24.0582C5.07547 23.7617 4.28484 23.0304 5.60914 23.0106C6.85437 22.9909 7.74383 24.157 8.04031 24.6314C9.46344 27.023 11.7365 26.351 12.6457 25.9359C12.7841 24.9081 13.1991 24.2163 13.6538 23.821C10.1355 23.4257 6.45906 22.0619 6.45906 16.0136C6.45906 14.294 7.0718 12.8709 8.07984 11.764C7.92172 11.3687 7.36828 9.74789 8.23797 7.57367C8.23797 7.57367 9.56227 7.15859 12.5864 9.19445C13.8514 8.83867 15.1955 8.66078 16.5395 8.66078C17.8836 8.66078 19.2277 8.83867 20.4927 9.19445C23.5168 7.13883 24.8411 7.57367 24.8411 7.57367C25.7108 9.74789 25.1573 11.3687 24.9992 11.764C26.0073 12.8709 26.62 14.2742 26.62 16.0136C26.62 22.0816 22.9238 23.4257 19.4055 23.821C19.9788 24.3152 20.4729 25.2639 20.4729 26.7463C20.4729 28.8612 20.4531 30.5611 20.4531 31.0948C20.4531 31.5098 20.7496 32.004 21.5402 31.8459C27.7862 29.7507 32.3125 23.821 32.3125 16.8437C32.3125 8.10734 25.2364 1.03125 16.5 1.03125Z" fill="#DED9D4"/>
</svg>
