<svg width="33" height="33" viewBox="0 0 33 33" fill="none" xmlns="http://www.w3.org/2000/svg">
<path fill-rule="evenodd" clip-rule="evenodd" d="M5.5 2.75H27.5C29.0188 2.75 30.25 3.98122 30.25 5.5V27.5C30.25 29.0188 29.0188 30.25 27.5 30.25H5.5C3.98122 30.25 2.75 29.0188 2.75 27.5V5.5C2.75 3.98122 3.98122 2.75 5.5 2.75ZM5.5 5.5V27.5H27.5V5.5H5.5ZM17.875 12.375C17.1631 12.375 16.411 12.5926 15.7467 12.9967L15.125 12.375H13.75V22H16.5V16.5C16.5 15.7083 17.3167 15.125 17.875 15.125H19.25C19.8083 15.125 20.625 15.7083 20.625 16.5V22H23.375V16.5C23.375 13.9524 21.1667 12.375 19.25 12.375H17.875ZM11 11C11.7594 11 12.375 10.3844 12.375 9.625C12.375 8.86561 11.7594 8.25 11 8.25C10.2406 8.25 9.625 8.86561 9.625 9.625C9.625 10.3844 10.2406 11 11 11ZM9.625 12.375V22H12.375V12.375H9.625Z" fill="#2E4057"/>
</svg>
