<svg width="140" height="61" viewBox="0 0 140 61" fill="none" xmlns="http://www.w3.org/2000/svg">
<g filter="url(#filter0_i)">
<rect width="140" height="61" rx="5" fill="#2E4057" fill-opacity="0.6"/>
<path d="M42.417 34.4707C42.417 36.9609 41.8896 38.8994 40.835 40.2861C39.7803 41.6631 38.3691 42.3516 36.6016 42.3516C35.7812 42.3516 35.1074 42.2344 34.5801 42V39.5684C35.1074 39.9492 35.791 40.1396 36.6309 40.1396C38.8477 40.1396 39.9561 38.2598 39.9561 34.5V20.9941H42.417V34.4707ZM53.7109 42.3516C51.4941 42.3516 49.7217 41.6533 48.3936 40.2568C47.0752 38.8506 46.416 36.9902 46.416 34.6758C46.416 32.1562 47.1045 30.1885 48.4814 28.7725C49.8584 27.3564 51.7188 26.6484 54.0625 26.6484C56.2988 26.6484 58.042 27.3369 59.292 28.7139C60.5518 30.0908 61.1816 32 61.1816 34.4414C61.1816 36.834 60.5029 38.7529 59.1455 40.1982C57.7979 41.6338 55.9863 42.3516 53.7109 42.3516ZM53.8867 28.6699C52.3438 28.6699 51.123 29.1973 50.2246 30.252C49.3262 31.2969 48.877 32.7422 48.877 34.5879C48.877 36.3652 49.3311 37.7666 50.2393 38.792C51.1475 39.8174 52.3633 40.3301 53.8867 40.3301C55.4395 40.3301 56.6309 39.8271 57.4609 38.8213C58.3008 37.8154 58.7207 36.3848 58.7207 34.5293C58.7207 32.6543 58.3008 31.209 57.4609 30.1934C56.6309 29.1777 55.4395 28.6699 53.8867 28.6699ZM77.1484 42H74.7461V39.627H74.6875C73.6914 41.4434 72.1484 42.3516 70.0586 42.3516C66.4844 42.3516 64.6973 40.2227 64.6973 35.9648V27H67.085V35.584C67.085 38.748 68.2959 40.3301 70.7178 40.3301C71.8896 40.3301 72.8516 39.9004 73.6035 39.041C74.3652 38.1719 74.7461 37.0391 74.7461 35.6426V27H77.1484V42ZM94.0674 35.1006H83.4766C83.5156 36.7705 83.9648 38.0596 84.8242 38.9678C85.6836 39.876 86.8652 40.3301 88.3691 40.3301C90.0586 40.3301 91.6113 39.7734 93.0273 38.6602V40.916C91.709 41.873 89.9658 42.3516 87.7979 42.3516C85.6787 42.3516 84.0137 41.6729 82.8027 40.3154C81.5918 38.9482 80.9863 37.0293 80.9863 34.5586C80.9863 32.2246 81.6455 30.3252 82.9639 28.8604C84.292 27.3857 85.9375 26.6484 87.9004 26.6484C89.8633 26.6484 91.3818 27.2832 92.4561 28.5527C93.5303 29.8223 94.0674 31.585 94.0674 33.8408V35.1006ZM91.6064 33.0645C91.5967 31.6777 91.2598 30.5986 90.5957 29.8271C89.9414 29.0557 89.0283 28.6699 87.8564 28.6699C86.7236 28.6699 85.7617 29.0752 84.9707 29.8857C84.1797 30.6963 83.6914 31.7559 83.5059 33.0645H91.6064ZM105.537 29.4316C105.117 29.1094 104.512 28.9482 103.721 28.9482C102.695 28.9482 101.836 29.4316 101.143 30.3984C100.459 31.3652 100.117 32.6836 100.117 34.3535V42H97.7148V27H100.117V30.0908H100.176C100.518 29.0361 101.04 28.2158 101.743 27.6299C102.446 27.0342 103.232 26.7363 104.102 26.7363C104.727 26.7363 105.205 26.8047 105.537 26.9414V29.4316Z" fill="#D1D1D1"/>
</g>
<defs>
<filter id="filter0_i" x="0" y="0" width="140" height="65" filterUnits="userSpaceOnUse" color-interpolation-filters="sRGB">
<feFlood flood-opacity="0" result="BackgroundImageFix"/>
<feBlend mode="normal" in="SourceGraphic" in2="BackgroundImageFix" result="shape"/>
<feColorMatrix in="SourceAlpha" type="matrix" values="0 0 0 0 0 0 0 0 0 0 0 0 0 0 0 0 0 0 127 0" result="hardAlpha"/>
<feOffset dy="4"/>
<feGaussianBlur stdDeviation="2"/>
<feComposite in2="hardAlpha" operator="arithmetic" k2="-1" k3="1"/>
<feColorMatrix type="matrix" values="0 0 0 0 0 0 0 0 0 0 0 0 0 0 0 0 0 0 0.25 0"/>
<feBlend mode="normal" in2="shape" result="effect1_innerShadow"/>
</filter>
</defs>
</svg>
