<svg width="33" height="33" viewBox="0 0 33 33" fill="none" xmlns="http://www.w3.org/2000/svg">
<path fill-rule="evenodd" clip-rule="evenodd" d="M16.5 3.09375C9.09593 3.09375 3.09375 9.09593 3.09375 16.5C3.09375 23.9042 9.09593 29.9062 16.5 29.9062C23.9042 29.9062 29.9062 23.9042 29.9062 16.5C29.9062 9.09593 23.9042 3.09375 16.5 3.09375ZM0 16.5C0 7.3873 7.3873 0 16.5 0C25.6127 0 33 7.3873 33 16.5C33 25.6127 25.6127 33 16.5 33C7.3873 33 0 25.6127 0 16.5ZM18.5625 22.6875C18.5625 23.8266 17.6391 24.75 16.5 24.75C15.3609 24.75 14.4375 23.8266 14.4375 22.6875C14.4375 21.5484 15.3609 20.625 16.5 20.625C17.6391 20.625 18.5625 21.5484 18.5625 22.6875ZM14.2742 12.5512C14.4402 12.219 14.665 11.934 14.9733 11.7285C15.2718 11.5295 15.7394 11.3438 16.5 11.3438C17.077 11.3438 17.6404 11.5223 18.0211 11.8078C18.3605 12.0624 18.5625 12.3958 18.5625 12.8906C18.5625 13.2549 18.4783 13.4347 18.4033 13.5472C18.3098 13.6876 18.1484 13.8427 17.8333 14.0528C17.6758 14.1578 17.5063 14.2599 17.2993 14.3841L17.2867 14.3917L17.2866 14.3917C17.0934 14.5077 16.8651 14.6446 16.6409 14.7941C16.1825 15.0997 15.6349 15.5247 15.2129 16.1579C14.739 16.8687 14.9312 17.8291 15.642 18.303C16.3529 18.7768 17.3133 18.5847 17.7871 17.8738C17.8807 17.7334 18.042 17.5783 18.3571 17.3682C18.5147 17.2631 18.6842 17.1611 18.8911 17.0369L18.9039 17.0292L18.904 17.0292C19.0972 16.9132 19.3253 16.7764 19.5495 16.6269C20.0078 16.3214 20.5554 15.8965 20.9775 15.2633C21.4182 14.6024 21.6562 13.8154 21.6562 12.8906C21.6562 11.3229 20.9129 10.1095 19.8773 9.33281C18.8831 8.5871 17.6418 8.25 16.5 8.25C15.1981 8.25 14.1188 8.57992 13.2572 9.15432C12.4053 9.72227 11.8566 10.4685 11.5071 11.1676C11.125 11.9317 11.4347 12.8609 12.1988 13.2429C12.963 13.625 13.8921 13.3153 14.2742 12.5512Z" fill="#DED9D4"/>
</svg>
