<svg width="212" height="23" viewBox="0 0 212 23" fill="none" xmlns="http://www.w3.org/2000/svg">
<path d="M11.5 0L21.4593 17.25H1.54071L11.5 0Z" fill="#AAAAAA"/>
<path d="M200.5 0L210.459 17.25H190.541L200.5 0Z" fill="#AAAAAA"/>
<path d="M35.2814 18C35.1547 18 35.0471 17.962 34.9584 17.886C34.8824 17.7973 34.8444 17.6897 34.8444 17.563V5.156C34.8444 5.01667 34.8824 4.909 34.9584 4.833C35.0471 4.74433 35.1547 4.7 35.2814 4.7H39.9174C41.3741 4.7 42.5141 5.042 43.3374 5.726C44.1607 6.41 44.5724 7.398 44.5724 8.69C44.5724 9.65267 44.3317 10.4443 43.8504 11.065C43.3817 11.6857 42.7167 12.1163 41.8554 12.357L44.7814 17.411C44.8194 17.487 44.8384 17.5567 44.8384 17.62C44.8384 17.7213 44.7941 17.81 44.7054 17.886C44.6294 17.962 44.5407 18 44.4394 18H43.5274C43.3374 18 43.1854 17.9557 43.0714 17.867C42.9701 17.7783 42.8751 17.6517 42.7864 17.487L40.0314 12.661H36.7064V17.563C36.7064 17.6897 36.6621 17.7973 36.5734 17.886C36.4847 17.962 36.3771 18 36.2504 18H35.2814ZM39.8414 11.046C41.7287 11.046 42.6724 10.2543 42.6724 8.671C42.6724 7.08767 41.7287 6.296 39.8414 6.296H36.7064V11.046H39.8414ZM50.8883 18.19C49.5836 18.19 48.5386 17.791 47.7533 16.993C46.9806 16.1823 46.5563 15.0803 46.4803 13.687L46.4613 13.041L46.4803 12.414C46.5689 11.046 46.9996 9.95667 47.7723 9.146C48.5576 8.33533 49.5899 7.93 50.8693 7.93C52.2753 7.93 53.3646 8.37967 54.1373 9.279C54.9099 10.1657 55.2963 11.369 55.2963 12.889V13.212C55.2963 13.3387 55.2519 13.4463 55.1633 13.535C55.0873 13.611 54.9859 13.649 54.8593 13.649H48.2853V13.82C48.3233 14.6433 48.5703 15.3463 49.0263 15.929C49.4949 16.499 50.1093 16.784 50.8693 16.784C51.4519 16.784 51.9269 16.67 52.2943 16.442C52.6743 16.2013 52.9529 15.9543 53.1303 15.701C53.2443 15.549 53.3266 15.4603 53.3773 15.435C53.4406 15.397 53.5483 15.378 53.7003 15.378H54.6313C54.7453 15.378 54.8403 15.4097 54.9163 15.473C54.9923 15.5363 55.0303 15.625 55.0303 15.739C55.0303 16.0177 54.8529 16.3533 54.4983 16.746C54.1563 17.1387 53.6686 17.4807 53.0353 17.772C52.4146 18.0507 51.6989 18.19 50.8883 18.19ZM53.4913 12.338V12.281C53.4913 11.407 53.2506 10.6977 52.7693 10.153C52.3006 9.59567 51.6673 9.317 50.8693 9.317C50.0713 9.317 49.4379 9.59567 48.9693 10.153C48.5133 10.6977 48.2853 11.407 48.2853 12.281V12.338H53.4913ZM60.6731 18C60.3438 18 60.1095 17.8417 59.9701 17.525L56.4551 8.709L56.4171 8.519C56.4171 8.405 56.4551 8.31 56.5311 8.234C56.6071 8.158 56.7021 8.12 56.8161 8.12H57.7281C57.9435 8.12 58.1018 8.22767 58.2031 8.443L61.0911 15.929L63.9791 8.443C64.0931 8.22767 64.2451 8.12 64.4351 8.12H65.3661C65.4675 8.12 65.5561 8.158 65.6321 8.234C65.7208 8.31 65.7651 8.405 65.7651 8.519L65.7271 8.709L62.1931 17.525C62.0538 17.8417 61.8195 18 61.4901 18H60.6731ZM71.3541 18.19C70.0494 18.19 69.0044 17.791 68.2191 16.993C67.4464 16.1823 67.0221 15.0803 66.9461 13.687L66.9271 13.041L66.9461 12.414C67.0348 11.046 67.4654 9.95667 68.2381 9.146C69.0234 8.33533 70.0558 7.93 71.3351 7.93C72.7411 7.93 73.8304 8.37967 74.6031 9.279C75.3758 10.1657 75.7621 11.369 75.7621 12.889V13.212C75.7621 13.3387 75.7178 13.4463 75.6291 13.535C75.5531 13.611 75.4518 13.649 75.3251 13.649H68.7511V13.82C68.7891 14.6433 69.0361 15.3463 69.4921 15.929C69.9608 16.499 70.5751 16.784 71.3351 16.784C71.9178 16.784 72.3928 16.67 72.7601 16.442C73.1401 16.2013 73.4188 15.9543 73.5961 15.701C73.7101 15.549 73.7924 15.4603 73.8431 15.435C73.9064 15.397 74.0141 15.378 74.1661 15.378H75.0971C75.2111 15.378 75.3061 15.4097 75.3821 15.473C75.4581 15.5363 75.4961 15.625 75.4961 15.739C75.4961 16.0177 75.3188 16.3533 74.9641 16.746C74.6221 17.1387 74.1344 17.4807 73.5011 17.772C72.8804 18.0507 72.1648 18.19 71.3541 18.19ZM73.9571 12.338V12.281C73.9571 11.407 73.7164 10.6977 73.2351 10.153C72.7664 9.59567 72.1331 9.317 71.3351 9.317C70.5371 9.317 69.9038 9.59567 69.4351 10.153C68.9791 10.6977 68.7511 11.407 68.7511 12.281V12.338H73.9571ZM78.4709 18C78.3443 18 78.2366 17.962 78.1479 17.886C78.0719 17.7973 78.0339 17.6897 78.0339 17.563V8.557C78.0339 8.43033 78.0719 8.329 78.1479 8.253C78.2366 8.16433 78.3443 8.12 78.4709 8.12H79.3639C79.4906 8.12 79.5919 8.16433 79.6679 8.253C79.7566 8.329 79.8009 8.43033 79.8009 8.557V9.393C80.1683 8.92433 80.5989 8.56333 81.0929 8.31C81.5996 8.05667 82.2266 7.93 82.9739 7.93C84.1899 7.93 85.1336 8.32267 85.8049 9.108C86.4889 9.88067 86.8309 10.913 86.8309 12.205V17.563C86.8309 17.6897 86.7866 17.7973 86.6979 17.886C86.6219 17.962 86.5206 18 86.3939 18H85.4439C85.3173 18 85.2096 17.962 85.1209 17.886C85.0449 17.7973 85.0069 17.6897 85.0069 17.563V12.3C85.0069 11.4007 84.7853 10.704 84.3419 10.21C83.9113 9.716 83.2843 9.469 82.4609 9.469C81.6629 9.469 81.0296 9.72233 80.5609 10.229C80.0923 10.723 79.8579 11.4133 79.8579 12.3V17.563C79.8579 17.6897 79.8136 17.7973 79.7249 17.886C79.6489 17.962 79.5476 18 79.4209 18H78.4709ZM89.8414 6.277C89.7147 6.277 89.6071 6.239 89.5184 6.163C89.4424 6.07433 89.4044 5.96667 89.4044 5.84V4.814C89.4044 4.68733 89.4424 4.57967 89.5184 4.491C89.6071 4.40233 89.7147 4.358 89.8414 4.358H91.0384C91.1651 4.358 91.2727 4.40233 91.3614 4.491C91.4501 4.57967 91.4944 4.68733 91.4944 4.814V5.84C91.4944 5.96667 91.4501 6.07433 91.3614 6.163C91.2727 6.239 91.1651 6.277 91.0384 6.277H89.8414ZM89.9934 18C89.8667 18 89.7591 17.962 89.6704 17.886C89.5944 17.7973 89.5564 17.6897 89.5564 17.563V8.557C89.5564 8.43033 89.5944 8.329 89.6704 8.253C89.7591 8.16433 89.8667 8.12 89.9934 8.12H90.9054C91.0321 8.12 91.1334 8.16433 91.2094 8.253C91.2981 8.329 91.3424 8.43033 91.3424 8.557V17.563C91.3424 17.6897 91.2981 17.7973 91.2094 17.886C91.1334 17.962 91.0321 18 90.9054 18H89.9934ZM94.595 18C94.4683 18 94.3606 17.962 94.272 17.886C94.196 17.7973 94.158 17.6897 94.158 17.563V8.576C94.158 8.44933 94.196 8.34167 94.272 8.253C94.3606 8.16433 94.4683 8.12 94.595 8.12H95.469C95.5956 8.12 95.7033 8.16433 95.792 8.253C95.8806 8.34167 95.925 8.44933 95.925 8.576V9.412C96.4443 8.55067 97.331 8.12 98.585 8.12H99.326C99.4526 8.12 99.554 8.16433 99.63 8.253C99.7186 8.329 99.763 8.43033 99.763 8.557V9.336C99.763 9.46267 99.7186 9.564 99.63 9.64C99.554 9.716 99.4526 9.754 99.326 9.754H98.186C97.502 9.754 96.9636 9.95667 96.571 10.362C96.1783 10.7547 95.982 11.293 95.982 11.977V17.563C95.982 17.6897 95.9376 17.7973 95.849 17.886C95.7603 17.962 95.6526 18 95.526 18H94.595ZM108.343 18.19C107.722 18.19 107.146 18.0633 106.614 17.81C106.082 17.5567 105.657 17.2147 105.341 16.784C105.037 16.3407 104.885 15.853 104.885 15.321C104.885 14.485 105.227 13.801 105.911 13.269C106.607 12.7243 107.545 12.3697 108.723 12.205L111.554 11.806V11.255C111.554 9.963 110.813 9.317 109.331 9.317C108.773 9.317 108.317 9.43733 107.963 9.678C107.608 9.906 107.342 10.1783 107.165 10.495C107.127 10.609 107.076 10.6913 107.013 10.742C106.962 10.7927 106.886 10.818 106.785 10.818H105.968C105.854 10.818 105.752 10.78 105.664 10.704C105.588 10.6153 105.55 10.514 105.55 10.4C105.562 10.096 105.702 9.754 105.968 9.374C106.246 8.98133 106.671 8.64567 107.241 8.367C107.811 8.07567 108.514 7.93 109.35 7.93C110.768 7.93 111.788 8.26567 112.409 8.937C113.029 9.59567 113.34 10.419 113.34 11.407V17.563C113.34 17.6897 113.295 17.7973 113.207 17.886C113.131 17.962 113.029 18 112.903 18H112.029C111.902 18 111.794 17.962 111.706 17.886C111.63 17.7973 111.592 17.6897 111.592 17.563V16.746C111.313 17.1513 110.908 17.4933 110.376 17.772C109.844 18.0507 109.166 18.19 108.343 18.19ZM108.742 16.765C109.565 16.765 110.236 16.499 110.756 15.967C111.288 15.4223 111.554 14.6433 111.554 13.63V13.098L109.35 13.421C108.45 13.5477 107.773 13.763 107.317 14.067C106.861 14.3583 106.633 14.732 106.633 15.188C106.633 15.6947 106.842 16.0873 107.26 16.366C107.678 16.632 108.172 16.765 108.742 16.765ZM119.757 18.19C118.554 18.19 117.623 17.8037 116.964 17.031C116.305 16.2457 115.976 15.207 115.976 13.915V8.557C115.976 8.43033 116.014 8.329 116.09 8.253C116.179 8.16433 116.286 8.12 116.413 8.12H117.363C117.49 8.12 117.591 8.16433 117.667 8.253C117.756 8.329 117.8 8.43033 117.8 8.557V13.82C117.8 15.7073 118.623 16.651 120.27 16.651C121.068 16.651 121.701 16.404 122.17 15.91C122.639 15.4033 122.873 14.7067 122.873 13.82V8.557C122.873 8.43033 122.911 8.329 122.987 8.253C123.076 8.16433 123.183 8.12 123.31 8.12H124.26C124.387 8.12 124.488 8.16433 124.564 8.253C124.64 8.329 124.678 8.43033 124.678 8.557V17.563C124.678 17.6897 124.64 17.7973 124.564 17.886C124.488 17.962 124.387 18 124.26 18H123.367C123.24 18 123.133 17.962 123.044 17.886C122.968 17.7973 122.93 17.6897 122.93 17.563V16.727C122.575 17.2083 122.145 17.5757 121.638 17.829C121.131 18.0697 120.504 18.19 119.757 18.19ZM135.578 18.19C134.691 18.19 133.944 18.0507 133.336 17.772C132.741 17.4807 132.291 17.1513 131.987 16.784C131.696 16.4167 131.55 16.1127 131.55 15.872C131.55 15.7453 131.594 15.6503 131.683 15.587C131.784 15.511 131.886 15.473 131.987 15.473H132.842C132.969 15.473 133.083 15.5363 133.184 15.663C133.488 16.0177 133.817 16.2963 134.172 16.499C134.527 16.7017 135.002 16.803 135.597 16.803C136.256 16.803 136.788 16.6763 137.193 16.423C137.611 16.157 137.82 15.796 137.82 15.34C137.82 15.036 137.731 14.789 137.554 14.599C137.389 14.3963 137.098 14.2253 136.68 14.086C136.275 13.934 135.667 13.7693 134.856 13.592C133.754 13.3513 132.969 13.003 132.5 12.547C132.044 12.091 131.816 11.502 131.816 10.78C131.816 10.2987 131.955 9.84267 132.234 9.412C132.525 8.96867 132.943 8.614 133.488 8.348C134.045 8.06933 134.71 7.93 135.483 7.93C136.294 7.93 136.984 8.063 137.554 8.329C138.124 8.595 138.548 8.91167 138.827 9.279C139.118 9.63367 139.264 9.93133 139.264 10.172C139.264 10.286 139.22 10.381 139.131 10.457C139.055 10.533 138.96 10.571 138.846 10.571H138.048C137.896 10.571 137.769 10.5077 137.668 10.381C137.465 10.1403 137.288 9.95667 137.136 9.83C136.997 9.69067 136.788 9.57033 136.509 9.469C136.243 9.36767 135.901 9.317 135.483 9.317C134.875 9.317 134.406 9.45 134.077 9.716C133.748 9.96933 133.583 10.305 133.583 10.723C133.583 10.989 133.653 11.217 133.792 11.407C133.931 11.5843 134.197 11.749 134.59 11.901C134.995 12.053 135.578 12.2113 136.338 12.376C137.541 12.6293 138.39 12.9967 138.884 13.478C139.391 13.9467 139.644 14.5483 139.644 15.283C139.644 15.8277 139.486 16.3217 139.169 16.765C138.852 17.2083 138.384 17.5567 137.763 17.81C137.155 18.0633 136.427 18.19 135.578 18.19ZM142.3 18C142.173 18 142.065 17.962 141.977 17.886C141.901 17.7973 141.863 17.6897 141.863 17.563V4.947C141.863 4.82033 141.901 4.719 141.977 4.643C142.065 4.55433 142.173 4.51 142.3 4.51H143.193C143.319 4.51 143.421 4.55433 143.497 4.643C143.585 4.719 143.63 4.82033 143.63 4.947V17.563C143.63 17.6897 143.585 17.7973 143.497 17.886C143.421 17.962 143.319 18 143.193 18H142.3ZM146.749 6.277C146.622 6.277 146.514 6.239 146.426 6.163C146.35 6.07433 146.312 5.96667 146.312 5.84V4.814C146.312 4.68733 146.35 4.57967 146.426 4.491C146.514 4.40233 146.622 4.358 146.749 4.358H147.946C148.072 4.358 148.18 4.40233 148.269 4.491C148.357 4.57967 148.402 4.68733 148.402 4.814V5.84C148.402 5.96667 148.357 6.07433 148.269 6.163C148.18 6.239 148.072 6.277 147.946 6.277H146.749ZM146.901 18C146.774 18 146.666 17.962 146.578 17.886C146.502 17.7973 146.464 17.6897 146.464 17.563V8.557C146.464 8.43033 146.502 8.329 146.578 8.253C146.666 8.16433 146.774 8.12 146.901 8.12H147.813C147.939 8.12 148.041 8.16433 148.117 8.253C148.205 8.329 148.25 8.43033 148.25 8.557V17.563C148.25 17.6897 148.205 17.7973 148.117 17.886C148.041 17.962 147.939 18 147.813 18H146.901ZM154.675 18.19C153.358 18.19 152.364 17.7593 151.692 16.898C151.021 16.0367 150.666 14.9473 150.628 13.63L150.609 13.06L150.628 12.49C150.666 11.1853 151.021 10.1023 151.692 9.241C152.364 8.367 153.358 7.93 154.675 7.93C155.98 7.93 157.006 8.39233 157.753 9.317V4.947C157.753 4.82033 157.791 4.719 157.867 4.643C157.956 4.55433 158.064 4.51 158.19 4.51H159.102C159.229 4.51 159.33 4.55433 159.406 4.643C159.495 4.719 159.539 4.82033 159.539 4.947V17.563C159.539 17.6897 159.495 17.7973 159.406 17.886C159.33 17.962 159.229 18 159.102 18H158.247C158.121 18 158.013 17.962 157.924 17.886C157.848 17.7973 157.81 17.6897 157.81 17.563V16.765C157.076 17.715 156.031 18.19 154.675 18.19ZM155.074 16.651C155.948 16.651 156.601 16.366 157.031 15.796C157.475 15.2133 157.715 14.523 157.753 13.725C157.766 13.5857 157.772 13.345 157.772 13.003C157.772 12.6483 157.766 12.4013 157.753 12.262C157.728 11.5147 157.487 10.8623 157.031 10.305C156.575 9.74767 155.923 9.469 155.074 9.469C154.175 9.469 153.516 9.74767 153.098 10.305C152.693 10.8623 152.471 11.597 152.433 12.509L152.414 13.06C152.414 15.454 153.301 16.651 155.074 16.651ZM166.317 18.19C165.012 18.19 163.967 17.791 163.182 16.993C162.409 16.1823 161.985 15.0803 161.909 13.687L161.89 13.041L161.909 12.414C161.998 11.046 162.428 9.95667 163.201 9.146C163.986 8.33533 165.019 7.93 166.298 7.93C167.704 7.93 168.793 8.37967 169.566 9.279C170.339 10.1657 170.725 11.369 170.725 12.889V13.212C170.725 13.3387 170.681 13.4463 170.592 13.535C170.516 13.611 170.415 13.649 170.288 13.649H163.714V13.82C163.752 14.6433 163.999 15.3463 164.455 15.929C164.924 16.499 165.538 16.784 166.298 16.784C166.881 16.784 167.356 16.67 167.723 16.442C168.103 16.2013 168.382 15.9543 168.559 15.701C168.673 15.549 168.755 15.4603 168.806 15.435C168.869 15.397 168.977 15.378 169.129 15.378H170.06C170.174 15.378 170.269 15.4097 170.345 15.473C170.421 15.5363 170.459 15.625 170.459 15.739C170.459 16.0177 170.282 16.3533 169.927 16.746C169.585 17.1387 169.097 17.4807 168.464 17.772C167.843 18.0507 167.128 18.19 166.317 18.19ZM168.92 12.338V12.281C168.92 11.407 168.679 10.6977 168.198 10.153C167.729 9.59567 167.096 9.317 166.298 9.317C165.5 9.317 164.867 9.59567 164.398 10.153C163.942 10.6977 163.714 11.407 163.714 12.281V12.338H168.92ZM173.434 18C173.307 18 173.199 17.962 173.111 17.886C173.035 17.7973 172.997 17.6897 172.997 17.563V8.576C172.997 8.44933 173.035 8.34167 173.111 8.253C173.199 8.16433 173.307 8.12 173.434 8.12H174.308C174.434 8.12 174.542 8.16433 174.631 8.253C174.719 8.34167 174.764 8.44933 174.764 8.576V9.412C175.283 8.55067 176.17 8.12 177.424 8.12H178.165C178.291 8.12 178.393 8.16433 178.469 8.253C178.557 8.329 178.602 8.43033 178.602 8.557V9.336C178.602 9.46267 178.557 9.564 178.469 9.64C178.393 9.716 178.291 9.754 178.165 9.754H177.025C176.341 9.754 175.802 9.95667 175.41 10.362C175.017 10.7547 174.821 11.293 174.821 11.977V17.563C174.821 17.6897 174.776 17.7973 174.688 17.886C174.599 17.962 174.491 18 174.365 18H173.434Z" fill="#AAAAAA"/>
</svg>
