<svg width="140" height="61" viewBox="0 0 140 61" fill="none" xmlns="http://www.w3.org/2000/svg">
<rect width="140" height="61" rx="5" fill="#2E4057" fill-opacity="0.6"/>
<path d="M47.2656 20.9941L39.4873 42H36.7773L29.1602 20.9941H31.8994L37.7148 37.6494C37.9004 38.1865 38.042 38.8066 38.1396 39.5098H38.1982C38.2764 38.9238 38.4375 38.2939 38.6816 37.6201L44.6143 20.9941H47.2656ZM51.1914 23.1914C50.7617 23.1914 50.3955 23.0449 50.0928 22.752C49.79 22.459 49.6387 22.0879 49.6387 21.6387C49.6387 21.1895 49.79 20.8184 50.0928 20.5254C50.3955 20.2227 50.7617 20.0713 51.1914 20.0713C51.6309 20.0713 52.002 20.2227 52.3047 20.5254C52.6172 20.8184 52.7734 21.1895 52.7734 21.6387C52.7734 22.0684 52.6172 22.4346 52.3047 22.7373C52.002 23.04 51.6309 23.1914 51.1914 23.1914ZM52.3633 42H49.9609V27H52.3633V42ZM56.3184 41.458V38.8799C57.627 39.8467 59.0674 40.3301 60.6396 40.3301C62.749 40.3301 63.8037 39.627 63.8037 38.2207C63.8037 37.8203 63.7109 37.4834 63.5254 37.21C63.3496 36.9268 63.1055 36.6777 62.793 36.4629C62.4902 36.248 62.1289 36.0576 61.709 35.8916C61.2988 35.7158 60.8545 35.5352 60.376 35.3496C59.7119 35.0859 59.126 34.8223 58.6182 34.5586C58.1201 34.2852 57.7002 33.9824 57.3584 33.6504C57.0264 33.3086 56.7725 32.9229 56.5967 32.4932C56.4307 32.0635 56.3477 31.5605 56.3477 30.9844C56.3477 30.2812 56.5088 29.6611 56.8311 29.124C57.1533 28.5771 57.583 28.123 58.1201 27.7617C58.6572 27.3906 59.2676 27.1123 59.9512 26.9268C60.6445 26.7412 61.3574 26.6484 62.0898 26.6484C63.3887 26.6484 64.5508 26.873 65.5762 27.3223V29.7539C64.4727 29.0312 63.2031 28.6699 61.7676 28.6699C61.3184 28.6699 60.9131 28.7236 60.5518 28.8311C60.1904 28.9287 59.8779 29.0703 59.6143 29.2559C59.3604 29.4414 59.1602 29.666 59.0137 29.9297C58.877 30.1836 58.8086 30.4668 58.8086 30.7793C58.8086 31.1699 58.877 31.4971 59.0137 31.7607C59.1602 32.0244 59.3701 32.2588 59.6436 32.4639C59.917 32.6689 60.249 32.8545 60.6396 33.0205C61.0303 33.1865 61.4746 33.3672 61.9727 33.5625C62.6367 33.8164 63.2324 34.0801 63.7598 34.3535C64.2871 34.6172 64.7363 34.9199 65.1074 35.2617C65.4785 35.5938 65.7617 35.9795 65.957 36.4189C66.1621 36.8584 66.2646 37.3809 66.2646 37.9863C66.2646 38.7285 66.0986 39.373 65.7666 39.9199C65.4443 40.4668 65.0098 40.9209 64.4629 41.2822C63.916 41.6436 63.2861 41.9121 62.5732 42.0879C61.8604 42.2637 61.1133 42.3516 60.332 42.3516C58.7891 42.3516 57.4512 42.0537 56.3184 41.458ZM71.2012 23.1914C70.7715 23.1914 70.4053 23.0449 70.1025 22.752C69.7998 22.459 69.6484 22.0879 69.6484 21.6387C69.6484 21.1895 69.7998 20.8184 70.1025 20.5254C70.4053 20.2227 70.7715 20.0713 71.2012 20.0713C71.6406 20.0713 72.0117 20.2227 72.3145 20.5254C72.627 20.8184 72.7832 21.1895 72.7832 21.6387C72.7832 22.0684 72.627 22.4346 72.3145 22.7373C72.0117 23.04 71.6406 23.1914 71.2012 23.1914ZM72.373 42H69.9707V27H72.373V42ZM84.1943 41.8535C83.6279 42.166 82.8809 42.3223 81.9531 42.3223C79.3262 42.3223 78.0127 40.8574 78.0127 37.9277V29.0508H75.4346V27H78.0127V23.3379L80.415 22.5615V27H84.1943V29.0508H80.415V37.5029C80.415 38.5088 80.5859 39.2266 80.9277 39.6562C81.2695 40.0859 81.8359 40.3008 82.627 40.3008C83.2324 40.3008 83.7549 40.1348 84.1943 39.8027V41.8535ZM99.458 35.1006H88.8672C88.9062 36.7705 89.3555 38.0596 90.2148 38.9678C91.0742 39.876 92.2559 40.3301 93.7598 40.3301C95.4492 40.3301 97.002 39.7734 98.418 38.6602V40.916C97.0996 41.873 95.3564 42.3516 93.1885 42.3516C91.0693 42.3516 89.4043 41.6729 88.1934 40.3154C86.9824 38.9482 86.377 37.0293 86.377 34.5586C86.377 32.2246 87.0361 30.3252 88.3545 28.8604C89.6826 27.3857 91.3281 26.6484 93.291 26.6484C95.2539 26.6484 96.7725 27.2832 97.8467 28.5527C98.9209 29.8223 99.458 31.585 99.458 33.8408V35.1006ZM96.9971 33.0645C96.9873 31.6777 96.6504 30.5986 95.9863 29.8271C95.332 29.0557 94.4189 28.6699 93.2471 28.6699C92.1143 28.6699 91.1523 29.0752 90.3613 29.8857C89.5703 30.6963 89.082 31.7559 88.8965 33.0645H96.9971ZM110.928 29.4316C110.508 29.1094 109.902 28.9482 109.111 28.9482C108.086 28.9482 107.227 29.4316 106.533 30.3984C105.85 31.3652 105.508 32.6836 105.508 34.3535V42H103.105V27H105.508V30.0908H105.566C105.908 29.0361 106.431 28.2158 107.134 27.6299C107.837 27.0342 108.623 26.7363 109.492 26.7363C110.117 26.7363 110.596 26.8047 110.928 26.9414V29.4316Z" fill="#F4F2F0"/>
</svg>
